solid OpenSCAD_Model
  facet normal -1 0 0
    outer loop
      vertex 0 0 0
      vertex 0 0 3.5
      vertex 0 28 0
    endloop
  endfacet
  facet normal -1 0 0
    outer loop
      vertex 0 28 0
      vertex 0 0 3.5
      vertex 0 28 3.5
    endloop
  endfacet
  facet normal 0 -1 0
    outer loop
      vertex 0 0 3.5
      vertex 0 0 0
      vertex 21 0 0
    endloop
  endfacet
  facet normal 0 -1 0
    outer loop
      vertex 21 0 3.5
      vertex 0 0 3.5
      vertex 21 0 0
    endloop
  endfacet
  facet normal 0 0 -1
    outer loop
      vertex 11.2119 22.3113 0
      vertex 0 28 0
      vertex 21 28 0
    endloop
  endfacet
  facet normal 0 0 -1
    outer loop
      vertex 0 0 0
      vertex 0 28 0
      vertex 4.16481 7.45077 0
    endloop
  endfacet
  facet normal 0 0 -1
    outer loop
      vertex 0 0 0
      vertex 4.16481 7.45077 0
      vertex 4.16481 6.54923 0
    endloop
  endfacet
  facet normal 0 0 -1
    outer loop
      vertex 0 0 0
      vertex 4.16481 6.54923 0
      vertex 4.65222 5.7908 0
    endloop
  endfacet
  facet normal 0 0 -1
    outer loop
      vertex 0 0 0
      vertex 4.65222 5.7908 0
      vertex 5.4723 5.41629 0
    endloop
  endfacet
  facet normal 0 0 -1
    outer loop
      vertex 0 0 0
      vertex 5.4723 5.41629 0
      vertex 21 0 0
    endloop
  endfacet
  facet normal 0 0 -1
    outer loop
      vertex 7.04601 6.13497 0
      vertex 21 0 0
      vertex 6.36466 5.54459 0
    endloop
  endfacet
  facet normal 0 0 -1
    outer loop
      vertex 7.3 7 0
      vertex 21 0 0
      vertex 7.04601 6.13497 0
    endloop
  endfacet
  facet normal 0 0 -1
    outer loop
      vertex 6.36466 8.45541 0
      vertex 0 28 0
      vertex 7.04601 7.86502 0
    endloop
  endfacet
  facet normal 0 0 -1
    outer loop
      vertex 7.3 7 0
      vertex 7.04601 7.86502 0
      vertex 21 0 0
    endloop
  endfacet
  facet normal 0 0 -1
    outer loop
      vertex 5.4723 8.58371 0
      vertex 0 28 0
      vertex 6.36466 8.45541 0
    endloop
  endfacet
  facet normal 0 0 -1
    outer loop
      vertex 4.65222 8.2092 0
      vertex 0 28 0
      vertex 5.4723 8.58371 0
    endloop
  endfacet
  facet normal 0 0 -1
    outer loop
      vertex 4.16481 7.45077 0
      vertex 0 28 0
      vertex 4.65222 8.2092 0
    endloop
  endfacet
  facet normal 0 0 -1
    outer loop
      vertex 7.63955 19.0227 0
      vertex 0 28 0
      vertex 7.63955 19.9773 0
    endloop
  endfacet
  facet normal 0 0 -1
    outer loop
      vertex 7.94953 18.1198 0
      vertex 0 28 0
      vertex 7.63955 19.0227 0
    endloop
  endfacet
  facet normal 0 0 -1
    outer loop
      vertex 15.0522 8.2092 0
      vertex 0 28 0
      vertex 7.94953 18.1198 0
    endloop
  endfacet
  facet normal 0 0 -1
    outer loop
      vertex 13.2429 18.5584 0
      vertex 21 28 0
      vertex 12.7885 17.7188 0
    endloop
  endfacet
  facet normal 0 0 -1
    outer loop
      vertex 15.8723 8.58371 0
      vertex 10.2605 16.6099 0
      vertex 11.2119 16.6887 0
    endloop
  endfacet
  facet normal 0 0 -1
    outer loop
      vertex 15.8723 8.58371 0
      vertex 12.0862 17.0722 0
      vertex 16.7647 8.45541 0
    endloop
  endfacet
  facet normal 0 0 -1
    outer loop
      vertex 17.446 7.86502 0
      vertex 12.7885 17.7188 0
      vertex 21 28 0
    endloop
  endfacet
  facet normal 0 0 -1
    outer loop
      vertex 13.4 19.5 0
      vertex 21 28 0
      vertex 13.2429 18.5584 0
    endloop
  endfacet
  facet normal 0 0 -1
    outer loop
      vertex 13.2429 20.4416 0
      vertex 21 28 0
      vertex 13.4 19.5 0
    endloop
  endfacet
  facet normal 0 0 -1
    outer loop
      vertex 11.2119 22.3113 0
      vertex 21 28 0
      vertex 12.0862 21.9278 0
    endloop
  endfacet
  facet normal 0 0 -1
    outer loop
      vertex 13.2429 20.4416 0
      vertex 12.7885 21.2812 0
      vertex 21 28 0
    endloop
  endfacet
  facet normal 0 0 -1
    outer loop
      vertex 12.7885 21.2812 0
      vertex 12.0862 21.9278 0
      vertex 21 28 0
    endloop
  endfacet
  facet normal 0 0 -1
    outer loop
      vertex 10.2605 22.3901 0
      vertex 0 28 0
      vertex 11.2119 22.3113 0
    endloop
  endfacet
  facet normal 0 0 -1
    outer loop
      vertex 14.5648 7.45077 0
      vertex 0 28 0
      vertex 15.0522 8.2092 0
    endloop
  endfacet
  facet normal 0 0 -1
    outer loop
      vertex 9.33508 22.1557 0
      vertex 0 28 0
      vertex 10.2605 22.3901 0
    endloop
  endfacet
  facet normal 0 0 -1
    outer loop
      vertex 8.53588 21.6336 0
      vertex 0 28 0
      vertex 9.33508 22.1557 0
    endloop
  endfacet
  facet normal 0 0 -1
    outer loop
      vertex 7.94953 20.8802 0
      vertex 0 28 0
      vertex 8.53588 21.6336 0
    endloop
  endfacet
  facet normal 0 0 -1
    outer loop
      vertex 7.63955 19.9773 0
      vertex 0 28 0
      vertex 7.94953 20.8802 0
    endloop
  endfacet
  facet normal 0 0 -1
    outer loop
      vertex 7.04601 7.86502 0
      vertex 0 28 0
      vertex 14.5648 7.45077 0
    endloop
  endfacet
  facet normal 0 0 -1
    outer loop
      vertex 15.0522 8.2092 0
      vertex 7.94953 18.1198 0
      vertex 8.53588 17.3664 0
    endloop
  endfacet
  facet normal 0 0 -1
    outer loop
      vertex 7.04601 7.86502 0
      vertex 14.5648 7.45077 0
      vertex 14.5648 6.54923 0
    endloop
  endfacet
  facet normal 0 0 -1
    outer loop
      vertex 7.04601 7.86502 0
      vertex 14.5648 6.54923 0
      vertex 15.0522 5.7908 0
    endloop
  endfacet
  facet normal 0 0 -1
    outer loop
      vertex 7.04601 7.86502 0
      vertex 15.0522 5.7908 0
      vertex 21 0 0
    endloop
  endfacet
  facet normal 0 0 -1
    outer loop
      vertex 16.7647 5.54459 0
      vertex 21 0 0
      vertex 15.8723 5.41629 0
    endloop
  endfacet
  facet normal 0 0 -1
    outer loop
      vertex 15.8723 5.41629 0
      vertex 21 0 0
      vertex 15.0522 5.7908 0
    endloop
  endfacet
  facet normal 0 0 -1
    outer loop
      vertex 17.446 6.13497 0
      vertex 21 0 0
      vertex 16.7647 5.54459 0
    endloop
  endfacet
  facet normal 0 0 -1
    outer loop
      vertex 17.7 7 0
      vertex 21 0 0
      vertex 17.446 6.13497 0
    endloop
  endfacet
  facet normal 0 0 -1
    outer loop
      vertex 15.8723 8.58371 0
      vertex 11.2119 16.6887 0
      vertex 12.0862 17.0722 0
    endloop
  endfacet
  facet normal 0 0 -1
    outer loop
      vertex 16.7647 8.45541 0
      vertex 12.7885 17.7188 0
      vertex 17.446 7.86502 0
    endloop
  endfacet
  facet normal 0 0 -1
    outer loop
      vertex 16.7647 8.45541 0
      vertex 12.0862 17.0722 0
      vertex 12.7885 17.7188 0
    endloop
  endfacet
  facet normal 0 0 -1
    outer loop
      vertex 21 0 0
      vertex 17.446 7.86502 0
      vertex 21 28 0
    endloop
  endfacet
  facet normal 0 0 -1
    outer loop
      vertex 17.446 7.86502 0
      vertex 21 0 0
      vertex 17.7 7 0
    endloop
  endfacet
  facet normal 0 0 -1
    outer loop
      vertex 15.0522 8.2092 0
      vertex 8.53588 17.3664 0
      vertex 9.33508 16.8443 0
    endloop
  endfacet
  facet normal 0 0 -1
    outer loop
      vertex 6.36466 5.54459 0
      vertex 21 0 0
      vertex 5.4723 5.41629 0
    endloop
  endfacet
  facet normal 0 0 -1
    outer loop
      vertex 15.0522 8.2092 0
      vertex 9.33508 16.8443 0
      vertex 10.2605 16.6099 0
    endloop
  endfacet
  facet normal 0 0 -1
    outer loop
      vertex 15.0522 8.2092 0
      vertex 10.2605 16.6099 0
      vertex 15.8723 8.58371 0
    endloop
  endfacet
  facet normal 0 1 0
    outer loop
      vertex 0 28 0
      vertex 0 28 3.5
      vertex 21 28 0
    endloop
  endfacet
  facet normal 0 1 0
    outer loop
      vertex 21 28 0
      vertex 0 28 3.5
      vertex 21 28 3.5
    endloop
  endfacet
  facet normal 0 0 1
    outer loop
      vertex 6.36466 5.54459 3.5
      vertex 0 0 3.5
      vertex 21 0 3.5
    endloop
  endfacet
  facet normal 0 0 1
    outer loop
      vertex 16.7647 5.54459 3.5
      vertex 15.8723 5.41629 3.5
      vertex 21 0 3.5
    endloop
  endfacet
  facet normal 0 0 1
    outer loop
      vertex 9.33508 22.1557 3.5
      vertex 10.2605 22.3901 3.5
      vertex 21 28 3.5
    endloop
  endfacet
  facet normal 0 0 1
    outer loop
      vertex 0 28 3.5
      vertex 0 0 3.5
      vertex 4.16481 6.54923 3.5
    endloop
  endfacet
  facet normal 0 0 1
    outer loop
      vertex 7.04601 6.13497 3.5
      vertex 6.36466 5.54459 3.5
      vertex 21 0 3.5
    endloop
  endfacet
  facet normal 0 0 1
    outer loop
      vertex 0 28 3.5
      vertex 4.16481 6.54923 3.5
      vertex 4.16481 7.45077 3.5
    endloop
  endfacet
  facet normal 0 0 1
    outer loop
      vertex 11.2119 22.3113 3.5
      vertex 12.0862 21.9278 3.5
      vertex 21 28 3.5
    endloop
  endfacet
  facet normal 0 0 1
    outer loop
      vertex 0 28 3.5
      vertex 4.16481 7.45077 3.5
      vertex 4.65222 8.2092 3.5
    endloop
  endfacet
  facet normal 0 0 1
    outer loop
      vertex 0 28 3.5
      vertex 4.65222 8.2092 3.5
      vertex 5.4723 8.58371 3.5
    endloop
  endfacet
  facet normal 0 0 1
    outer loop
      vertex 15.0522 5.7908 3.5
      vertex 6.36466 8.45541 3.5
      vertex 21 0 3.5
    endloop
  endfacet
  facet normal 0 0 1
    outer loop
      vertex 0 28 3.5
      vertex 5.4723 8.58371 3.5
      vertex 6.36466 8.45541 3.5
    endloop
  endfacet
  facet normal 0 0 1
    outer loop
      vertex 6.36466 8.45541 3.5
      vertex 7.04601 7.86502 3.5
      vertex 21 0 3.5
    endloop
  endfacet
  facet normal 0 0 1
    outer loop
      vertex 5.4723 5.41629 3.5
      vertex 0 0 3.5
      vertex 6.36466 5.54459 3.5
    endloop
  endfacet
  facet normal 0 0 1
    outer loop
      vertex 4.65222 5.7908 3.5
      vertex 0 0 3.5
      vertex 5.4723 5.41629 3.5
    endloop
  endfacet
  facet normal 0 0 1
    outer loop
      vertex 4.16481 6.54923 3.5
      vertex 0 0 3.5
      vertex 4.65222 5.7908 3.5
    endloop
  endfacet
  facet normal 0 0 1
    outer loop
      vertex 7.63955 19.9773 3.5
      vertex 0 28 3.5
      vertex 7.63955 19.0227 3.5
    endloop
  endfacet
  facet normal 0 0 1
    outer loop
      vertex 13.2429 20.4416 3.5
      vertex 13.4 19.5 3.5
      vertex 21 0 3.5
    endloop
  endfacet
  facet normal 0 0 1
    outer loop
      vertex 7.94953 20.8802 3.5
      vertex 0 28 3.5
      vertex 7.63955 19.9773 3.5
    endloop
  endfacet
  facet normal 0 0 1
    outer loop
      vertex 8.53588 21.6336 3.5
      vertex 0 28 3.5
      vertex 7.94953 20.8802 3.5
    endloop
  endfacet
  facet normal 0 0 1
    outer loop
      vertex 9.33508 22.1557 3.5
      vertex 0 28 3.5
      vertex 8.53588 21.6336 3.5
    endloop
  endfacet
  facet normal 0 0 1
    outer loop
      vertex 10.2605 22.3901 3.5
      vertex 11.2119 22.3113 3.5
      vertex 21 28 3.5
    endloop
  endfacet
  facet normal 0 0 1
    outer loop
      vertex 21 28 3.5
      vertex 0 28 3.5
      vertex 9.33508 22.1557 3.5
    endloop
  endfacet
  facet normal 0 0 1
    outer loop
      vertex 14.5648 7.45077 3.5
      vertex 15.0522 8.2092 3.5
      vertex 0 28 3.5
    endloop
  endfacet
  facet normal 0 0 1
    outer loop
      vertex 13.4 19.5 3.5
      vertex 13.2429 18.5584 3.5
      vertex 21 0 3.5
    endloop
  endfacet
  facet normal 0 0 1
    outer loop
      vertex 21 28 3.5
      vertex 12.0862 21.9278 3.5
      vertex 12.7885 21.2812 3.5
    endloop
  endfacet
  facet normal 0 0 1
    outer loop
      vertex 21 28 3.5
      vertex 13.2429 20.4416 3.5
      vertex 21 0 3.5
    endloop
  endfacet
  facet normal 0 0 1
    outer loop
      vertex 21 28 3.5
      vertex 12.7885 21.2812 3.5
      vertex 13.2429 20.4416 3.5
    endloop
  endfacet
  facet normal 0 0 1
    outer loop
      vertex 17.446 7.86502 3.5
      vertex 17.7 7 3.5
      vertex 21 0 3.5
    endloop
  endfacet
  facet normal 0 0 1
    outer loop
      vertex 7.94953 18.1198 3.5
      vertex 0 28 3.5
      vertex 8.53588 17.3664 3.5
    endloop
  endfacet
  facet normal 0 0 1
    outer loop
      vertex 7.63955 19.0227 3.5
      vertex 0 28 3.5
      vertex 7.94953 18.1198 3.5
    endloop
  endfacet
  facet normal 0 0 1
    outer loop
      vertex 0 28 3.5
      vertex 6.36466 8.45541 3.5
      vertex 14.5648 6.54923 3.5
    endloop
  endfacet
  facet normal 0 0 1
    outer loop
      vertex 15.8723 5.41629 3.5
      vertex 15.0522 5.7908 3.5
      vertex 21 0 3.5
    endloop
  endfacet
  facet normal 0 0 1
    outer loop
      vertex 0 28 3.5
      vertex 14.5648 6.54923 3.5
      vertex 14.5648 7.45077 3.5
    endloop
  endfacet
  facet normal 0 0 1
    outer loop
      vertex 15.8723 8.58371 3.5
      vertex 12.0862 17.0722 3.5
      vertex 11.2119 16.6887 3.5
    endloop
  endfacet
  facet normal 0 0 1
    outer loop
      vertex 8.53588 17.3664 3.5
      vertex 0 28 3.5
      vertex 15.0522 8.2092 3.5
    endloop
  endfacet
  facet normal 0 0 1
    outer loop
      vertex 11.2119 16.6887 3.5
      vertex 10.2605 16.6099 3.5
      vertex 15.8723 8.58371 3.5
    endloop
  endfacet
  facet normal 0 0 1
    outer loop
      vertex 12.7885 17.7188 3.5
      vertex 12.0862 17.0722 3.5
      vertex 16.7647 8.45541 3.5
    endloop
  endfacet
  facet normal 0 0 1
    outer loop
      vertex 13.2429 18.5584 3.5
      vertex 17.446 7.86502 3.5
      vertex 21 0 3.5
    endloop
  endfacet
  facet normal 0 0 1
    outer loop
      vertex 13.2429 18.5584 3.5
      vertex 12.7885 17.7188 3.5
      vertex 17.446 7.86502 3.5
    endloop
  endfacet
  facet normal 0 0 1
    outer loop
      vertex 17.7 7 3.5
      vertex 17.446 6.13497 3.5
      vertex 21 0 3.5
    endloop
  endfacet
  facet normal 0 0 1
    outer loop
      vertex 17.446 6.13497 3.5
      vertex 16.7647 5.54459 3.5
      vertex 21 0 3.5
    endloop
  endfacet
  facet normal 0 0 1
    outer loop
      vertex 16.7647 8.45541 3.5
      vertex 17.446 7.86502 3.5
      vertex 12.7885 17.7188 3.5
    endloop
  endfacet
  facet normal 0 0 1
    outer loop
      vertex 15.0522 8.2092 3.5
      vertex 9.33508 16.8443 3.5
      vertex 8.53588 17.3664 3.5
    endloop
  endfacet
  facet normal 0 0 1
    outer loop
      vertex 15.0522 8.2092 3.5
      vertex 10.2605 16.6099 3.5
      vertex 9.33508 16.8443 3.5
    endloop
  endfacet
  facet normal 0 0 1
    outer loop
      vertex 14.5648 6.54923 3.5
      vertex 6.36466 8.45541 3.5
      vertex 15.0522 5.7908 3.5
    endloop
  endfacet
  facet normal 0 0 1
    outer loop
      vertex 7.04601 7.86502 3.5
      vertex 7.3 7 3.5
      vertex 21 0 3.5
    endloop
  endfacet
  facet normal 0 0 1
    outer loop
      vertex 7.3 7 3.5
      vertex 7.04601 6.13497 3.5
      vertex 21 0 3.5
    endloop
  endfacet
  facet normal 0 0 1
    outer loop
      vertex 15.0522 8.2092 3.5
      vertex 15.8723 8.58371 3.5
      vertex 10.2605 16.6099 3.5
    endloop
  endfacet
  facet normal 0 0 1
    outer loop
      vertex 15.8723 8.58371 3.5
      vertex 16.7647 8.45541 3.5
      vertex 12.0862 17.0722 3.5
    endloop
  endfacet
  facet normal 1 0 0
    outer loop
      vertex 21 0 3.5
      vertex 21 0 0
      vertex 21 28 0
    endloop
  endfacet
  facet normal 1 0 0
    outer loop
      vertex 21 28 3.5
      vertex 21 0 3.5
      vertex 21 28 0
    endloop
  endfacet
  facet normal 1 0 0
    outer loop
      vertex 4.16481 7.45077 0
      vertex 4.16481 7.45077 3.5
      vertex 4.16481 6.54923 3.5
    endloop
  endfacet
  facet normal 1 0 0
    outer loop
      vertex 4.16481 6.54923 0
      vertex 4.16481 7.45077 0
      vertex 4.16481 6.54923 3.5
    endloop
  endfacet
  facet normal 0.841253 -0.540641 0
    outer loop
      vertex 4.65222 8.2092 0
      vertex 4.65222 8.2092 3.5
      vertex 4.16481 7.45077 3.5
    endloop
  endfacet
  facet normal 0.841253 -0.540641 0
    outer loop
      vertex 4.16481 7.45077 0
      vertex 4.65222 8.2092 0
      vertex 4.16481 7.45077 3.5
    endloop
  endfacet
  facet normal 0.415415 -0.909632 0
    outer loop
      vertex 5.4723 8.58371 0
      vertex 5.4723 8.58371 3.5
      vertex 4.65222 8.2092 3.5
    endloop
  endfacet
  facet normal 0.415415 -0.909632 0
    outer loop
      vertex 4.65222 8.2092 0
      vertex 5.4723 8.58371 0
      vertex 4.65222 8.2092 3.5
    endloop
  endfacet
  facet normal -0.142315 -0.989821 0
    outer loop
      vertex 6.36466 8.45541 0
      vertex 6.36466 8.45541 3.5
      vertex 5.4723 8.58371 3.5
    endloop
  endfacet
  facet normal -0.142315 -0.989821 0
    outer loop
      vertex 5.4723 8.58371 0
      vertex 6.36466 8.45541 0
      vertex 5.4723 8.58371 3.5
    endloop
  endfacet
  facet normal -0.654861 -0.75575 0
    outer loop
      vertex 7.04601 7.86502 0
      vertex 7.04601 7.86502 3.5
      vertex 6.36466 8.45541 3.5
    endloop
  endfacet
  facet normal -0.654861 -0.75575 0
    outer loop
      vertex 6.36466 8.45541 0
      vertex 7.04601 7.86502 0
      vertex 6.36466 8.45541 3.5
    endloop
  endfacet
  facet normal -0.959493 -0.281732 0
    outer loop
      vertex 7.3 7 3.5
      vertex 7.04601 7.86502 3.5
      vertex 7.3 7 0
    endloop
  endfacet
  facet normal -0.959493 -0.281732 0
    outer loop
      vertex 7.3 7 0
      vertex 7.04601 7.86502 3.5
      vertex 7.04601 7.86502 0
    endloop
  endfacet
  facet normal -0.959493 0.281732 0
    outer loop
      vertex 7.3 7 3.5
      vertex 7.3 7 0
      vertex 7.04601 6.13497 3.5
    endloop
  endfacet
  facet normal -0.959493 0.281732 0
    outer loop
      vertex 7.04601 6.13497 3.5
      vertex 7.3 7 0
      vertex 7.04601 6.13497 0
    endloop
  endfacet
  facet normal -0.654861 0.75575 0
    outer loop
      vertex 7.04601 6.13497 3.5
      vertex 7.04601 6.13497 0
      vertex 6.36466 5.54459 3.5
    endloop
  endfacet
  facet normal -0.654861 0.75575 0
    outer loop
      vertex 6.36466 5.54459 3.5
      vertex 7.04601 6.13497 0
      vertex 6.36466 5.54459 0
    endloop
  endfacet
  facet normal -0.142315 0.989821 0
    outer loop
      vertex 6.36466 5.54459 3.5
      vertex 6.36466 5.54459 0
      vertex 5.4723 5.41629 3.5
    endloop
  endfacet
  facet normal -0.142315 0.989821 0
    outer loop
      vertex 5.4723 5.41629 3.5
      vertex 6.36466 5.54459 0
      vertex 5.4723 5.41629 0
    endloop
  endfacet
  facet normal 0.415415 0.909632 0
    outer loop
      vertex 5.4723 5.41629 3.5
      vertex 5.4723 5.41629 0
      vertex 4.65222 5.7908 3.5
    endloop
  endfacet
  facet normal 0.415415 0.909632 0
    outer loop
      vertex 4.65222 5.7908 3.5
      vertex 5.4723 5.41629 0
      vertex 4.65222 5.7908 0
    endloop
  endfacet
  facet normal 0.841253 0.540641 0
    outer loop
      vertex 4.16481 6.54923 3.5
      vertex 4.65222 5.7908 3.5
      vertex 4.65222 5.7908 0
    endloop
  endfacet
  facet normal 0.841253 0.540641 0
    outer loop
      vertex 4.16481 6.54923 0
      vertex 4.16481 6.54923 3.5
      vertex 4.65222 5.7908 0
    endloop
  endfacet
  facet normal 1 0 0
    outer loop
      vertex 7.63955 19.9773 0
      vertex 7.63955 19.9773 3.5
      vertex 7.63955 19.0227 3.5
    endloop
  endfacet
  facet normal 1 0 0
    outer loop
      vertex 7.63955 19.0227 0
      vertex 7.63955 19.9773 0
      vertex 7.63955 19.0227 3.5
    endloop
  endfacet
  facet normal 0.945817 -0.3247 0
    outer loop
      vertex 7.94953 20.8802 0
      vertex 7.94953 20.8802 3.5
      vertex 7.63955 19.9773 3.5
    endloop
  endfacet
  facet normal 0.945817 -0.3247 0
    outer loop
      vertex 7.63955 19.9773 0
      vertex 7.94953 20.8802 0
      vertex 7.63955 19.9773 3.5
    endloop
  endfacet
  facet normal 0.789141 -0.614212 0
    outer loop
      vertex 8.53588 21.6336 0
      vertex 8.53588 21.6336 3.5
      vertex 7.94953 20.8802 3.5
    endloop
  endfacet
  facet normal 0.789141 -0.614212 0
    outer loop
      vertex 7.94953 20.8802 0
      vertex 8.53588 21.6336 0
      vertex 7.94953 20.8802 3.5
    endloop
  endfacet
  facet normal 0.546949 -0.837166 0
    outer loop
      vertex 9.33508 22.1557 0
      vertex 9.33508 22.1557 3.5
      vertex 8.53588 21.6336 3.5
    endloop
  endfacet
  facet normal 0.546949 -0.837166 0
    outer loop
      vertex 8.53588 21.6336 0
      vertex 9.33508 22.1557 0
      vertex 8.53588 21.6336 3.5
    endloop
  endfacet
  facet normal 0.245485 -0.9694 0
    outer loop
      vertex 10.2605 22.3901 0
      vertex 10.2605 22.3901 3.5
      vertex 9.33508 22.1557 3.5
    endloop
  endfacet
  facet normal 0.245485 -0.9694 0
    outer loop
      vertex 9.33508 22.1557 0
      vertex 10.2605 22.3901 0
      vertex 9.33508 22.1557 3.5
    endloop
  endfacet
  facet normal -0.0825791 -0.996585 0
    outer loop
      vertex 11.2119 22.3113 0
      vertex 11.2119 22.3113 3.5
      vertex 10.2605 22.3901 3.5
    endloop
  endfacet
  facet normal -0.0825791 -0.996585 0
    outer loop
      vertex 10.2605 22.3901 0
      vertex 11.2119 22.3113 0
      vertex 10.2605 22.3901 3.5
    endloop
  endfacet
  facet normal -0.401695 -0.915773 0
    outer loop
      vertex 12.0862 21.9278 0
      vertex 12.0862 21.9278 3.5
      vertex 11.2119 22.3113 3.5
    endloop
  endfacet
  facet normal -0.401695 -0.915773 0
    outer loop
      vertex 11.2119 22.3113 0
      vertex 12.0862 21.9278 0
      vertex 11.2119 22.3113 3.5
    endloop
  endfacet
  facet normal -0.677282 -0.735723 0
    outer loop
      vertex 12.7885 21.2812 0
      vertex 12.7885 21.2812 3.5
      vertex 12.0862 21.9278 3.5
    endloop
  endfacet
  facet normal -0.677282 -0.735723 0
    outer loop
      vertex 12.0862 21.9278 0
      vertex 12.7885 21.2812 0
      vertex 12.0862 21.9278 3.5
    endloop
  endfacet
  facet normal -0.879474 -0.475948 0
    outer loop
      vertex 13.2429 20.4416 3.5
      vertex 12.7885 21.2812 3.5
      vertex 13.2429 20.4416 0
    endloop
  endfacet
  facet normal -0.879474 -0.475948 0
    outer loop
      vertex 13.2429 20.4416 0
      vertex 12.7885 21.2812 3.5
      vertex 12.7885 21.2812 0
    endloop
  endfacet
  facet normal -0.986361 -0.164595 0
    outer loop
      vertex 13.4 19.5 3.5
      vertex 13.2429 20.4416 3.5
      vertex 13.4 19.5 0
    endloop
  endfacet
  facet normal -0.986361 -0.164595 0
    outer loop
      vertex 13.4 19.5 0
      vertex 13.2429 20.4416 3.5
      vertex 13.2429 20.4416 0
    endloop
  endfacet
  facet normal -0.986361 0.164595 0
    outer loop
      vertex 13.4 19.5 3.5
      vertex 13.4 19.5 0
      vertex 13.2429 18.5584 3.5
    endloop
  endfacet
  facet normal -0.986361 0.164595 0
    outer loop
      vertex 13.2429 18.5584 3.5
      vertex 13.4 19.5 0
      vertex 13.2429 18.5584 0
    endloop
  endfacet
  facet normal -0.879474 0.475948 0
    outer loop
      vertex 13.2429 18.5584 3.5
      vertex 13.2429 18.5584 0
      vertex 12.7885 17.7188 3.5
    endloop
  endfacet
  facet normal -0.879474 0.475948 0
    outer loop
      vertex 12.7885 17.7188 3.5
      vertex 13.2429 18.5584 0
      vertex 12.7885 17.7188 0
    endloop
  endfacet
  facet normal -0.677282 0.735723 0
    outer loop
      vertex 12.7885 17.7188 3.5
      vertex 12.7885 17.7188 0
      vertex 12.0862 17.0722 3.5
    endloop
  endfacet
  facet normal -0.677282 0.735723 0
    outer loop
      vertex 12.0862 17.0722 3.5
      vertex 12.7885 17.7188 0
      vertex 12.0862 17.0722 0
    endloop
  endfacet
  facet normal -0.401695 0.915773 0
    outer loop
      vertex 12.0862 17.0722 3.5
      vertex 12.0862 17.0722 0
      vertex 11.2119 16.6887 3.5
    endloop
  endfacet
  facet normal -0.401695 0.915773 0
    outer loop
      vertex 11.2119 16.6887 3.5
      vertex 12.0862 17.0722 0
      vertex 11.2119 16.6887 0
    endloop
  endfacet
  facet normal -0.0825791 0.996585 0
    outer loop
      vertex 11.2119 16.6887 3.5
      vertex 11.2119 16.6887 0
      vertex 10.2605 16.6099 3.5
    endloop
  endfacet
  facet normal -0.0825791 0.996585 0
    outer loop
      vertex 10.2605 16.6099 3.5
      vertex 11.2119 16.6887 0
      vertex 10.2605 16.6099 0
    endloop
  endfacet
  facet normal 0.245485 0.9694 0
    outer loop
      vertex 10.2605 16.6099 3.5
      vertex 10.2605 16.6099 0
      vertex 9.33508 16.8443 3.5
    endloop
  endfacet
  facet normal 0.245485 0.9694 0
    outer loop
      vertex 9.33508 16.8443 3.5
      vertex 10.2605 16.6099 0
      vertex 9.33508 16.8443 0
    endloop
  endfacet
  facet normal 0.546949 0.837166 0
    outer loop
      vertex 9.33508 16.8443 3.5
      vertex 9.33508 16.8443 0
      vertex 8.53588 17.3664 3.5
    endloop
  endfacet
  facet normal 0.546949 0.837166 0
    outer loop
      vertex 8.53588 17.3664 3.5
      vertex 9.33508 16.8443 0
      vertex 8.53588 17.3664 0
    endloop
  endfacet
  facet normal 0.789141 0.614212 0
    outer loop
      vertex 7.94953 18.1198 3.5
      vertex 8.53588 17.3664 3.5
      vertex 8.53588 17.3664 0
    endloop
  endfacet
  facet normal 0.789141 0.614212 0
    outer loop
      vertex 7.94953 18.1198 0
      vertex 7.94953 18.1198 3.5
      vertex 8.53588 17.3664 0
    endloop
  endfacet
  facet normal 0.945817 0.3247 0
    outer loop
      vertex 7.63955 19.0227 3.5
      vertex 7.94953 18.1198 3.5
      vertex 7.94953 18.1198 0
    endloop
  endfacet
  facet normal 0.945817 0.3247 0
    outer loop
      vertex 7.63955 19.0227 0
      vertex 7.63955 19.0227 3.5
      vertex 7.94953 18.1198 0
    endloop
  endfacet
  facet normal 1 0 0
    outer loop
      vertex 14.5648 7.45077 0
      vertex 14.5648 7.45077 3.5
      vertex 14.5648 6.54923 3.5
    endloop
  endfacet
  facet normal 1 0 0
    outer loop
      vertex 14.5648 6.54923 0
      vertex 14.5648 7.45077 0
      vertex 14.5648 6.54923 3.5
    endloop
  endfacet
  facet normal 0.841253 -0.540641 0
    outer loop
      vertex 15.0522 8.2092 0
      vertex 15.0522 8.2092 3.5
      vertex 14.5648 7.45077 3.5
    endloop
  endfacet
  facet normal 0.841253 -0.540641 0
    outer loop
      vertex 14.5648 7.45077 0
      vertex 15.0522 8.2092 0
      vertex 14.5648 7.45077 3.5
    endloop
  endfacet
  facet normal 0.415415 -0.909632 0
    outer loop
      vertex 15.8723 8.58371 0
      vertex 15.8723 8.58371 3.5
      vertex 15.0522 8.2092 3.5
    endloop
  endfacet
  facet normal 0.415415 -0.909632 0
    outer loop
      vertex 15.0522 8.2092 0
      vertex 15.8723 8.58371 0
      vertex 15.0522 8.2092 3.5
    endloop
  endfacet
  facet normal -0.142315 -0.989821 0
    outer loop
      vertex 16.7647 8.45541 0
      vertex 16.7647 8.45541 3.5
      vertex 15.8723 8.58371 3.5
    endloop
  endfacet
  facet normal -0.142315 -0.989821 0
    outer loop
      vertex 15.8723 8.58371 0
      vertex 16.7647 8.45541 0
      vertex 15.8723 8.58371 3.5
    endloop
  endfacet
  facet normal -0.654861 -0.75575 0
    outer loop
      vertex 17.446 7.86502 0
      vertex 17.446 7.86502 3.5
      vertex 16.7647 8.45541 3.5
    endloop
  endfacet
  facet normal -0.654861 -0.75575 0
    outer loop
      vertex 16.7647 8.45541 0
      vertex 17.446 7.86502 0
      vertex 16.7647 8.45541 3.5
    endloop
  endfacet
  facet normal -0.959493 -0.281732 0
    outer loop
      vertex 17.7 7 3.5
      vertex 17.446 7.86502 3.5
      vertex 17.7 7 0
    endloop
  endfacet
  facet normal -0.959493 -0.281732 0
    outer loop
      vertex 17.7 7 0
      vertex 17.446 7.86502 3.5
      vertex 17.446 7.86502 0
    endloop
  endfacet
  facet normal -0.959493 0.281732 0
    outer loop
      vertex 17.7 7 3.5
      vertex 17.7 7 0
      vertex 17.446 6.13497 3.5
    endloop
  endfacet
  facet normal -0.959493 0.281732 0
    outer loop
      vertex 17.446 6.13497 3.5
      vertex 17.7 7 0
      vertex 17.446 6.13497 0
    endloop
  endfacet
  facet normal -0.654861 0.75575 0
    outer loop
      vertex 17.446 6.13497 3.5
      vertex 17.446 6.13497 0
      vertex 16.7647 5.54459 3.5
    endloop
  endfacet
  facet normal -0.654861 0.75575 0
    outer loop
      vertex 16.7647 5.54459 3.5
      vertex 17.446 6.13497 0
      vertex 16.7647 5.54459 0
    endloop
  endfacet
  facet normal -0.142315 0.989821 0
    outer loop
      vertex 16.7647 5.54459 3.5
      vertex 16.7647 5.54459 0
      vertex 15.8723 5.41629 3.5
    endloop
  endfacet
  facet normal -0.142315 0.989821 0
    outer loop
      vertex 15.8723 5.41629 3.5
      vertex 16.7647 5.54459 0
      vertex 15.8723 5.41629 0
    endloop
  endfacet
  facet normal 0.415415 0.909632 0
    outer loop
      vertex 15.8723 5.41629 3.5
      vertex 15.8723 5.41629 0
      vertex 15.0522 5.7908 3.5
    endloop
  endfacet
  facet normal 0.415415 0.909632 0
    outer loop
      vertex 15.0522 5.7908 3.5
      vertex 15.8723 5.41629 0
      vertex 15.0522 5.7908 0
    endloop
  endfacet
  facet normal 0.841253 0.540641 0
    outer loop
      vertex 14.5648 6.54923 3.5
      vertex 15.0522 5.7908 3.5
      vertex 15.0522 5.7908 0
    endloop
  endfacet
  facet normal 0.841253 0.540641 0
    outer loop
      vertex 14.5648 6.54923 0
      vertex 14.5648 6.54923 3.5
      vertex 15.0522 5.7908 0
    endloop
  endfacet
endsolid OpenSCAD_Model
