solid OpenSCAD_Model
  facet normal -1 0 0
    outer loop
      vertex 0 0 0
      vertex 0 0 3.5
      vertex 0 20 0
    endloop
  endfacet
  facet normal -1 0 0
    outer loop
      vertex 0 20 0
      vertex 0 0 3.5
      vertex 0 20 3.5
    endloop
  endfacet
  facet normal 0 -1 0
    outer loop
      vertex 0 0 3.5
      vertex 0 0 0
      vertex 50 0 0
    endloop
  endfacet
  facet normal 0 -1 0
    outer loop
      vertex 50 0 3.5
      vertex 0 0 3.5
      vertex 50 0 0
    endloop
  endfacet
  facet normal 0 0 -1
    outer loop
      vertex 10.8961 16.2581 0
      vertex 0 20 0
      vertex 50 20 0
    endloop
  endfacet
  facet normal 0 0 -1
    outer loop
      vertex 0 0 0
      vertex 0 20 0
      vertex 7.1 13.5 0
    endloop
  endfacet
  facet normal 0 0 -1
    outer loop
      vertex 7.65385 15.2046 0
      vertex 0 20 0
      vertex 9.10385 16.2581 0
    endloop
  endfacet
  facet normal 0 0 -1
    outer loop
      vertex 0 0 0
      vertex 7.1 13.5 0
      vertex 7.65385 11.7954 0
    endloop
  endfacet
  facet normal 0 0 -1
    outer loop
      vertex 0 0 0
      vertex 7.65385 11.7954 0
      vertex 9.10385 10.7419 0
    endloop
  endfacet
  facet normal 0 0 -1
    outer loop
      vertex 0 0 0
      vertex 9.10385 10.7419 0
      vertex 50 0 0
    endloop
  endfacet
  facet normal 0 0 -1
    outer loop
      vertex 9.10385 10.7419 0
      vertex 10.8961 10.7419 0
      vertex 50 0 0
    endloop
  endfacet
  facet normal 0 0 -1
    outer loop
      vertex 12.9 13.5 0
      vertex 50 0 0
      vertex 12.3461 11.7954 0
    endloop
  endfacet
  facet normal 0 0 -1
    outer loop
      vertex 36.3 8.61436 0
      vertex 50 0 0
      vertex 34.7 8.61436 0
    endloop
  endfacet
  facet normal 0 0 -1
    outer loop
      vertex 12.3461 15.2046 0
      vertex 50 0 0
      vertex 12.9 13.5 0
    endloop
  endfacet
  facet normal 0 0 -1
    outer loop
      vertex 9.10385 16.2581 0
      vertex 0 20 0
      vertex 10.8961 16.2581 0
    endloop
  endfacet
  facet normal 0 0 -1
    outer loop
      vertex 34.7 11.3856 0
      vertex 12.3461 15.2046 0
      vertex 50 20 0
    endloop
  endfacet
  facet normal 0 0 -1
    outer loop
      vertex 12.3461 15.2046 0
      vertex 10.8961 16.2581 0
      vertex 50 20 0
    endloop
  endfacet
  facet normal 0 0 -1
    outer loop
      vertex 7.1 13.5 0
      vertex 0 20 0
      vertex 7.65385 15.2046 0
    endloop
  endfacet
  facet normal 0 0 -1
    outer loop
      vertex 34.7 8.61436 0
      vertex 12.3461 15.2046 0
      vertex 33.9 10 0
    endloop
  endfacet
  facet normal 0 0 -1
    outer loop
      vertex 50 0 0
      vertex 12.3461 15.2046 0
      vertex 34.7 8.61436 0
    endloop
  endfacet
  facet normal 0 0 -1
    outer loop
      vertex 34.7 11.3856 0
      vertex 50 20 0
      vertex 36.3 11.3856 0
    endloop
  endfacet
  facet normal 0 0 -1
    outer loop
      vertex 44.3 10 0
      vertex 36.3 8.61436 0
      vertex 50 20 0
    endloop
  endfacet
  facet normal 0 0 -1
    outer loop
      vertex 36.3 8.61436 0
      vertex 37.1 10 0
      vertex 50 20 0
    endloop
  endfacet
  facet normal 0 0 -1
    outer loop
      vertex 37.1 10 0
      vertex 36.3 11.3856 0
      vertex 50 20 0
    endloop
  endfacet
  facet normal 0 0 -1
    outer loop
      vertex 33.9 10 0
      vertex 12.3461 15.2046 0
      vertex 34.7 11.3856 0
    endloop
  endfacet
  facet normal 0 0 -1
    outer loop
      vertex 46.7 11.3856 0
      vertex 50 20 0
      vertex 47.5 10 0
    endloop
  endfacet
  facet normal 0 0 -1
    outer loop
      vertex 50 0 0
      vertex 36.3 8.61436 0
      vertex 44.3 10 0
    endloop
  endfacet
  facet normal 0 0 -1
    outer loop
      vertex 45.1 11.3856 0
      vertex 44.3 10 0
      vertex 50 20 0
    endloop
  endfacet
  facet normal 0 0 -1
    outer loop
      vertex 50 0 0
      vertex 44.3 10 0
      vertex 45.1 8.61436 0
    endloop
  endfacet
  facet normal 0 0 -1
    outer loop
      vertex 50 0 0
      vertex 45.1 8.61436 0
      vertex 46.7 8.61436 0
    endloop
  endfacet
  facet normal 0 0 -1
    outer loop
      vertex 50 0 0
      vertex 46.7 8.61436 0
      vertex 47.5 10 0
    endloop
  endfacet
  facet normal 0 0 -1
    outer loop
      vertex 50 0 0
      vertex 47.5 10 0
      vertex 50 20 0
    endloop
  endfacet
  facet normal 0 0 -1
    outer loop
      vertex 45.1 11.3856 0
      vertex 50 20 0
      vertex 46.7 11.3856 0
    endloop
  endfacet
  facet normal 0 0 -1
    outer loop
      vertex 12.3461 11.7954 0
      vertex 50 0 0
      vertex 10.8961 10.7419 0
    endloop
  endfacet
  facet normal 0 1 0
    outer loop
      vertex 0 20 0
      vertex 0 20 3.5
      vertex 50 20 0
    endloop
  endfacet
  facet normal 0 1 0
    outer loop
      vertex 50 20 0
      vertex 0 20 3.5
      vertex 50 20 3.5
    endloop
  endfacet
  facet normal 0 0 1
    outer loop
      vertex 10.8961 10.7419 3.5
      vertex 0 0 3.5
      vertex 50 0 3.5
    endloop
  endfacet
  facet normal 0 0 1
    outer loop
      vertex 12.3461 15.2046 3.5
      vertex 12.9 13.5 3.5
      vertex 50 0 3.5
    endloop
  endfacet
  facet normal 0 0 1
    outer loop
      vertex 34.7 11.3856 3.5
      vertex 36.3 11.3856 3.5
      vertex 50 20 3.5
    endloop
  endfacet
  facet normal 0 0 1
    outer loop
      vertex 0 20 3.5
      vertex 0 0 3.5
      vertex 7.65385 11.7954 3.5
    endloop
  endfacet
  facet normal 0 0 1
    outer loop
      vertex 12.3461 11.7954 3.5
      vertex 10.8961 10.7419 3.5
      vertex 50 0 3.5
    endloop
  endfacet
  facet normal 0 0 1
    outer loop
      vertex 0 20 3.5
      vertex 7.65385 11.7954 3.5
      vertex 7.1 13.5 3.5
    endloop
  endfacet
  facet normal 0 0 1
    outer loop
      vertex 0 20 3.5
      vertex 7.1 13.5 3.5
      vertex 7.65385 15.2046 3.5
    endloop
  endfacet
  facet normal 0 0 1
    outer loop
      vertex 12.9 13.5 3.5
      vertex 12.3461 11.7954 3.5
      vertex 50 0 3.5
    endloop
  endfacet
  facet normal 0 0 1
    outer loop
      vertex 0 20 3.5
      vertex 7.65385 15.2046 3.5
      vertex 9.10385 16.2581 3.5
    endloop
  endfacet
  facet normal 0 0 1
    outer loop
      vertex 34.7 8.61436 3.5
      vertex 10.8961 16.2581 3.5
      vertex 50 0 3.5
    endloop
  endfacet
  facet normal 0 0 1
    outer loop
      vertex 50 20 3.5
      vertex 0 20 3.5
      vertex 10.8961 16.2581 3.5
    endloop
  endfacet
  facet normal 0 0 1
    outer loop
      vertex 10.8961 16.2581 3.5
      vertex 12.3461 15.2046 3.5
      vertex 50 0 3.5
    endloop
  endfacet
  facet normal 0 0 1
    outer loop
      vertex 9.10385 10.7419 3.5
      vertex 0 0 3.5
      vertex 10.8961 10.7419 3.5
    endloop
  endfacet
  facet normal 0 0 1
    outer loop
      vertex 7.65385 11.7954 3.5
      vertex 0 0 3.5
      vertex 9.10385 10.7419 3.5
    endloop
  endfacet
  facet normal 0 0 1
    outer loop
      vertex 36.3 8.61436 3.5
      vertex 34.7 8.61436 3.5
      vertex 50 0 3.5
    endloop
  endfacet
  facet normal 0 0 1
    outer loop
      vertex 33.9 10 3.5
      vertex 10.8961 16.2581 3.5
      vertex 34.7 8.61436 3.5
    endloop
  endfacet
  facet normal 0 0 1
    outer loop
      vertex 34.7 11.3856 3.5
      vertex 10.8961 16.2581 3.5
      vertex 33.9 10 3.5
    endloop
  endfacet
  facet normal 0 0 1
    outer loop
      vertex 36.3 11.3856 3.5
      vertex 37.1 10 3.5
      vertex 50 20 3.5
    endloop
  endfacet
  facet normal 0 0 1
    outer loop
      vertex 50 20 3.5
      vertex 10.8961 16.2581 3.5
      vertex 34.7 11.3856 3.5
    endloop
  endfacet
  facet normal 0 0 1
    outer loop
      vertex 45.1 11.3856 3.5
      vertex 46.7 11.3856 3.5
      vertex 50 20 3.5
    endloop
  endfacet
  facet normal 0 0 1
    outer loop
      vertex 45.1 8.61436 3.5
      vertex 37.1 10 3.5
      vertex 50 0 3.5
    endloop
  endfacet
  facet normal 0 0 1
    outer loop
      vertex 37.1 10 3.5
      vertex 36.3 8.61436 3.5
      vertex 50 0 3.5
    endloop
  endfacet
  facet normal 0 0 1
    outer loop
      vertex 46.7 8.61436 3.5
      vertex 45.1 8.61436 3.5
      vertex 50 0 3.5
    endloop
  endfacet
  facet normal 0 0 1
    outer loop
      vertex 44.3 10 3.5
      vertex 37.1 10 3.5
      vertex 45.1 8.61436 3.5
    endloop
  endfacet
  facet normal 0 0 1
    outer loop
      vertex 50 20 3.5
      vertex 37.1 10 3.5
      vertex 44.3 10 3.5
    endloop
  endfacet
  facet normal 0 0 1
    outer loop
      vertex 47.5 10 3.5
      vertex 46.7 8.61436 3.5
      vertex 50 0 3.5
    endloop
  endfacet
  facet normal 0 0 1
    outer loop
      vertex 50 20 3.5
      vertex 44.3 10 3.5
      vertex 45.1 11.3856 3.5
    endloop
  endfacet
  facet normal 0 0 1
    outer loop
      vertex 50 20 3.5
      vertex 47.5 10 3.5
      vertex 50 0 3.5
    endloop
  endfacet
  facet normal 0 0 1
    outer loop
      vertex 50 20 3.5
      vertex 46.7 11.3856 3.5
      vertex 47.5 10 3.5
    endloop
  endfacet
  facet normal 0 0 1
    outer loop
      vertex 9.10385 16.2581 3.5
      vertex 10.8961 16.2581 3.5
      vertex 0 20 3.5
    endloop
  endfacet
  facet normal 1 0 0
    outer loop
      vertex 50 0 3.5
      vertex 50 0 0
      vertex 50 20 0
    endloop
  endfacet
  facet normal 1 0 0
    outer loop
      vertex 50 20 3.5
      vertex 50 0 3.5
      vertex 50 20 0
    endloop
  endfacet
  facet normal 0.951056 -0.309017 0
    outer loop
      vertex 7.65385 15.2046 0
      vertex 7.65385 15.2046 3.5
      vertex 7.1 13.5 3.5
    endloop
  endfacet
  facet normal 0.951056 -0.309017 0
    outer loop
      vertex 7.1 13.5 0
      vertex 7.65385 15.2046 0
      vertex 7.1 13.5 3.5
    endloop
  endfacet
  facet normal 0.951056 0.309017 0
    outer loop
      vertex 7.1 13.5 3.5
      vertex 7.65385 11.7954 3.5
      vertex 7.65385 11.7954 0
    endloop
  endfacet
  facet normal 0.951056 0.309017 0
    outer loop
      vertex 7.1 13.5 0
      vertex 7.1 13.5 3.5
      vertex 7.65385 11.7954 0
    endloop
  endfacet
  facet normal 0.587785 -0.809017 0
    outer loop
      vertex 9.10385 16.2581 0
      vertex 9.10385 16.2581 3.5
      vertex 7.65385 15.2046 3.5
    endloop
  endfacet
  facet normal 0.587785 -0.809017 0
    outer loop
      vertex 7.65385 15.2046 0
      vertex 9.10385 16.2581 0
      vertex 7.65385 15.2046 3.5
    endloop
  endfacet
  facet normal 0 -1 0
    outer loop
      vertex 10.8961 16.2581 0
      vertex 10.8961 16.2581 3.5
      vertex 9.10385 16.2581 3.5
    endloop
  endfacet
  facet normal 0 -1 0
    outer loop
      vertex 9.10385 16.2581 0
      vertex 10.8961 16.2581 0
      vertex 9.10385 16.2581 3.5
    endloop
  endfacet
  facet normal -0.587785 -0.809017 0
    outer loop
      vertex 12.3461 15.2046 0
      vertex 12.3461 15.2046 3.5
      vertex 10.8961 16.2581 3.5
    endloop
  endfacet
  facet normal -0.587785 -0.809017 0
    outer loop
      vertex 10.8961 16.2581 0
      vertex 12.3461 15.2046 0
      vertex 10.8961 16.2581 3.5
    endloop
  endfacet
  facet normal -0.951056 -0.309017 0
    outer loop
      vertex 12.9 13.5 3.5
      vertex 12.3461 15.2046 3.5
      vertex 12.9 13.5 0
    endloop
  endfacet
  facet normal -0.951056 -0.309017 0
    outer loop
      vertex 12.9 13.5 0
      vertex 12.3461 15.2046 3.5
      vertex 12.3461 15.2046 0
    endloop
  endfacet
  facet normal -0.951056 0.309017 0
    outer loop
      vertex 12.9 13.5 3.5
      vertex 12.9 13.5 0
      vertex 12.3461 11.7954 3.5
    endloop
  endfacet
  facet normal -0.951056 0.309017 0
    outer loop
      vertex 12.3461 11.7954 3.5
      vertex 12.9 13.5 0
      vertex 12.3461 11.7954 0
    endloop
  endfacet
  facet normal -0.587785 0.809017 0
    outer loop
      vertex 12.3461 11.7954 3.5
      vertex 12.3461 11.7954 0
      vertex 10.8961 10.7419 3.5
    endloop
  endfacet
  facet normal -0.587785 0.809017 0
    outer loop
      vertex 10.8961 10.7419 3.5
      vertex 12.3461 11.7954 0
      vertex 10.8961 10.7419 0
    endloop
  endfacet
  facet normal 0 1 0
    outer loop
      vertex 10.8961 10.7419 3.5
      vertex 10.8961 10.7419 0
      vertex 9.10385 10.7419 3.5
    endloop
  endfacet
  facet normal 0 1 0
    outer loop
      vertex 9.10385 10.7419 3.5
      vertex 10.8961 10.7419 0
      vertex 9.10385 10.7419 0
    endloop
  endfacet
  facet normal 0.587785 0.809017 0
    outer loop
      vertex 9.10385 10.7419 3.5
      vertex 9.10385 10.7419 0
      vertex 7.65385 11.7954 3.5
    endloop
  endfacet
  facet normal 0.587785 0.809017 0
    outer loop
      vertex 7.65385 11.7954 3.5
      vertex 9.10385 10.7419 0
      vertex 7.65385 11.7954 0
    endloop
  endfacet
  facet normal 0.866025 0.5 0
    outer loop
      vertex 33.9 10 3.5
      vertex 34.7 8.61436 3.5
      vertex 34.7 8.61436 0
    endloop
  endfacet
  facet normal 0.866025 0.5 0
    outer loop
      vertex 33.9 10 0
      vertex 33.9 10 3.5
      vertex 34.7 8.61436 0
    endloop
  endfacet
  facet normal 0.866025 -0.5 0
    outer loop
      vertex 34.7 11.3856 0
      vertex 34.7 11.3856 3.5
      vertex 33.9 10 3.5
    endloop
  endfacet
  facet normal 0.866025 -0.5 0
    outer loop
      vertex 33.9 10 0
      vertex 34.7 11.3856 0
      vertex 33.9 10 3.5
    endloop
  endfacet
  facet normal 0 -1 0
    outer loop
      vertex 36.3 11.3856 0
      vertex 36.3 11.3856 3.5
      vertex 34.7 11.3856 3.5
    endloop
  endfacet
  facet normal 0 -1 0
    outer loop
      vertex 34.7 11.3856 0
      vertex 36.3 11.3856 0
      vertex 34.7 11.3856 3.5
    endloop
  endfacet
  facet normal -0.866025 -0.5 0
    outer loop
      vertex 37.1 10 3.5
      vertex 36.3 11.3856 3.5
      vertex 37.1 10 0
    endloop
  endfacet
  facet normal -0.866025 -0.5 0
    outer loop
      vertex 37.1 10 0
      vertex 36.3 11.3856 3.5
      vertex 36.3 11.3856 0
    endloop
  endfacet
  facet normal -0.866025 0.5 0
    outer loop
      vertex 37.1 10 3.5
      vertex 37.1 10 0
      vertex 36.3 8.61436 3.5
    endloop
  endfacet
  facet normal -0.866025 0.5 0
    outer loop
      vertex 36.3 8.61436 3.5
      vertex 37.1 10 0
      vertex 36.3 8.61436 0
    endloop
  endfacet
  facet normal 0 1 0
    outer loop
      vertex 36.3 8.61436 3.5
      vertex 36.3 8.61436 0
      vertex 34.7 8.61436 3.5
    endloop
  endfacet
  facet normal 0 1 0
    outer loop
      vertex 34.7 8.61436 3.5
      vertex 36.3 8.61436 0
      vertex 34.7 8.61436 0
    endloop
  endfacet
  facet normal 0.866025 0.5 0
    outer loop
      vertex 44.3 10 3.5
      vertex 45.1 8.61436 3.5
      vertex 45.1 8.61436 0
    endloop
  endfacet
  facet normal 0.866025 0.5 0
    outer loop
      vertex 44.3 10 0
      vertex 44.3 10 3.5
      vertex 45.1 8.61436 0
    endloop
  endfacet
  facet normal 0.866025 -0.5 0
    outer loop
      vertex 45.1 11.3856 0
      vertex 45.1 11.3856 3.5
      vertex 44.3 10 3.5
    endloop
  endfacet
  facet normal 0.866025 -0.5 0
    outer loop
      vertex 44.3 10 0
      vertex 45.1 11.3856 0
      vertex 44.3 10 3.5
    endloop
  endfacet
  facet normal 0 -1 0
    outer loop
      vertex 46.7 11.3856 0
      vertex 46.7 11.3856 3.5
      vertex 45.1 11.3856 3.5
    endloop
  endfacet
  facet normal 0 -1 0
    outer loop
      vertex 45.1 11.3856 0
      vertex 46.7 11.3856 0
      vertex 45.1 11.3856 3.5
    endloop
  endfacet
  facet normal -0.866025 -0.5 0
    outer loop
      vertex 47.5 10 3.5
      vertex 46.7 11.3856 3.5
      vertex 47.5 10 0
    endloop
  endfacet
  facet normal -0.866025 -0.5 0
    outer loop
      vertex 47.5 10 0
      vertex 46.7 11.3856 3.5
      vertex 46.7 11.3856 0
    endloop
  endfacet
  facet normal -0.866025 0.5 0
    outer loop
      vertex 47.5 10 3.5
      vertex 47.5 10 0
      vertex 46.7 8.61436 3.5
    endloop
  endfacet
  facet normal -0.866025 0.5 0
    outer loop
      vertex 46.7 8.61436 3.5
      vertex 47.5 10 0
      vertex 46.7 8.61436 0
    endloop
  endfacet
  facet normal 0 1 0
    outer loop
      vertex 46.7 8.61436 3.5
      vertex 46.7 8.61436 0
      vertex 45.1 8.61436 3.5
    endloop
  endfacet
  facet normal 0 1 0
    outer loop
      vertex 45.1 8.61436 3.5
      vertex 46.7 8.61436 0
      vertex 45.1 8.61436 0
    endloop
  endfacet
endsolid OpenSCAD_Model
