solid OpenSCAD_Model
  facet normal -3.74915e-033 -1 -6.12303e-017
    outer loop
      vertex 19 -9.5 -8.5
      vertex 19 -9.5 8.5
      vertex -19 -9.5 8.5
    endloop
  endfacet
  facet normal -3.74915e-033 -1 -6.12303e-017
    outer loop
      vertex -8 -9.5 3
      vertex 19 -9.5 -8.5
      vertex -19 -9.5 8.5
    endloop
  endfacet
  facet normal -3.74915e-033 -1 -6.12303e-017
    outer loop
      vertex -19 -9.5 3
      vertex -8 -9.5 3
      vertex -19 -9.5 8.5
    endloop
  endfacet
  facet normal -3.74915e-033 -1 -6.12303e-017
    outer loop
      vertex -19 -9.5 -3
      vertex 19 -9.5 -8.5
      vertex -8 -9.5 -3
    endloop
  endfacet
  facet normal -3.74915e-033 -1 -6.12303e-017
    outer loop
      vertex -19 -9.5 -8.5
      vertex 19 -9.5 -8.5
      vertex -19 -9.5 -3
    endloop
  endfacet
  facet normal -3.74915e-033 -1 -6.12303e-017
    outer loop
      vertex -8 -9.5 3
      vertex -8 -9.5 -3
      vertex 19 -9.5 -8.5
    endloop
  endfacet
  facet normal 6.12303e-017 -6.12303e-017 1
    outer loop
      vertex -19 -9.5 8.5
      vertex 19 -9.5 8.5
      vertex 19 9.5 8.5
    endloop
  endfacet
  facet normal 6.12303e-017 -6.12303e-017 1
    outer loop
      vertex -19 9.5 8.5
      vertex -19 -9.5 8.5
      vertex 19 9.5 8.5
    endloop
  endfacet
  facet normal 1 0 -6.12303e-017
    outer loop
      vertex 19 -4.27975 -1.39058
      vertex 19 -9.5 8.5
      vertex 19 -9.5 -8.5
    endloop
  endfacet
  facet normal 1 0 -6.12303e-017
    outer loop
      vertex 19 -4.47535 0.470378
      vertex 19 -9.5 8.5
      vertex 19 -4.27975 -1.39058
    endloop
  endfacet
  facet normal 1 0 -6.12303e-017
    outer loop
      vertex 19 -3.89711 2.25
      vertex 19 -9.5 8.5
      vertex 19 -4.47535 0.470378
    endloop
  endfacet
  facet normal 1 0 -6.12303e-017
    outer loop
      vertex 19 -2.64503 3.64058
      vertex 19 -9.5 8.5
      vertex 19 -3.89711 2.25
    endloop
  endfacet
  facet normal 1 0 -6.12303e-017
    outer loop
      vertex 19 0.935603 4.40166
      vertex 19 2.64503 3.64058
      vertex 19 9.5 8.5
    endloop
  endfacet
  facet normal 1 0 -6.12303e-017
    outer loop
      vertex 19 -0.935603 4.40166
      vertex 19 -9.5 8.5
      vertex 19 -2.64503 3.64058
    endloop
  endfacet
  facet normal 1 0 -6.12303e-017
    outer loop
      vertex 19 2.64503 3.64058
      vertex 19 3.89711 2.25
      vertex 19 9.5 8.5
    endloop
  endfacet
  facet normal 1 0 -6.12303e-017
    outer loop
      vertex 19 9.5 8.5
      vertex 19 -9.5 8.5
      vertex 19 -0.935603 4.40166
    endloop
  endfacet
  facet normal 1 0 -6.12303e-017
    outer loop
      vertex 19 5.51073e-016 -4.5
      vertex 19 -1.83031 -4.11096
      vertex 19 -9.5 -8.5
    endloop
  endfacet
  facet normal 1 0 -6.12303e-017
    outer loop
      vertex 19 9.5 -8.5
      vertex 19 9.5 8.5
      vertex 19 3.89711 2.25
    endloop
  endfacet
  facet normal 1 0 -6.12303e-017
    outer loop
      vertex 19 9.5 -8.5
      vertex 19 3.89711 2.25
      vertex 19 4.47535 0.470378
    endloop
  endfacet
  facet normal 1 0 -6.12303e-017
    outer loop
      vertex 19 9.5 -8.5
      vertex 19 4.47535 0.470378
      vertex 19 4.27975 -1.39058
    endloop
  endfacet
  facet normal 1 0 -6.12303e-017
    outer loop
      vertex 19 -1.83031 -4.11096
      vertex 19 -3.34415 -3.01109
      vertex 19 -9.5 -8.5
    endloop
  endfacet
  facet normal 1 0 -6.12303e-017
    outer loop
      vertex 19 9.5 -8.5
      vertex 19 4.27975 -1.39058
      vertex 19 3.34415 -3.01109
    endloop
  endfacet
  facet normal 1 0 -6.12303e-017
    outer loop
      vertex 19 9.5 -8.5
      vertex 19 1.83032 -4.11096
      vertex 19 -9.5 -8.5
    endloop
  endfacet
  facet normal 1 0 -6.12303e-017
    outer loop
      vertex 19 9.5 -8.5
      vertex 19 3.34415 -3.01109
      vertex 19 1.83032 -4.11096
    endloop
  endfacet
  facet normal 1 0 -6.12303e-017
    outer loop
      vertex 19 1.83032 -4.11096
      vertex 19 5.51073e-016 -4.5
      vertex 19 -9.5 -8.5
    endloop
  endfacet
  facet normal 1 0 -6.12303e-017
    outer loop
      vertex 19 -3.34415 -3.01109
      vertex 19 -4.27975 -1.39058
      vertex 19 -9.5 -8.5
    endloop
  endfacet
  facet normal 1 0 -6.12303e-017
    outer loop
      vertex 19 -0.935603 4.40166
      vertex 19 0.935603 4.40166
      vertex 19 9.5 8.5
    endloop
  endfacet
  facet normal -6.12303e-017 6.12303e-017 -1
    outer loop
      vertex 19 -9.5 -8.5
      vertex -19 -9.5 -8.5
      vertex 19 9.5 -8.5
    endloop
  endfacet
  facet normal -6.12303e-017 6.12303e-017 -1
    outer loop
      vertex 19 9.5 -8.5
      vertex -19 -9.5 -8.5
      vertex -19 9.5 -8.5
    endloop
  endfacet
  facet normal -1 0 6.12303e-017
    outer loop
      vertex -19 -9.5 -3
      vertex -19 -3.88868 -3
      vertex -19 -9.5 -8.5
    endloop
  endfacet
  facet normal -1 0 6.12303e-017
    outer loop
      vertex -19 -9.5 -8.5
      vertex -19 -3.88868 -3
      vertex -19 -3.88868 -7.5
    endloop
  endfacet
  facet normal -1 0 6.12303e-017
    outer loop
      vertex -19 -9.5 -8.5
      vertex -19 -3.88868 -7.5
      vertex -19 3.88868 -7.5
    endloop
  endfacet
  facet normal -1 0 6.12303e-017
    outer loop
      vertex -19 3.88868 -7.5
      vertex -19 3.88868 -3
      vertex -19 9.5 -3
    endloop
  endfacet
  facet normal -1 0 6.12303e-017
    outer loop
      vertex -19 3.88868 -7.5
      vertex -19 9.5 -3
      vertex -19 9.5 -8.5
    endloop
  endfacet
  facet normal -1 0 6.12303e-017
    outer loop
      vertex -19 3.88868 -7.5
      vertex -19 9.5 -8.5
      vertex -19 -9.5 -8.5
    endloop
  endfacet
  facet normal 6.12303e-017 -1.22461e-016 1
    outer loop
      vertex -8 9.5 -3
      vertex -19 9.5 -3
      vertex -19 3.88868 -3
    endloop
  endfacet
  facet normal 6.12303e-017 -1.22461e-016 1
    outer loop
      vertex -15.6709 3.37423 -3
      vertex -8 9.5 -3
      vertex -17.5058 4.07011 -3
    endloop
  endfacet
  facet normal 6.12303e-017 -1.22461e-016 1
    outer loop
      vertex -17.5058 4.07011 -3
      vertex -8 9.5 -3
      vertex -19 3.88868 -3
    endloop
  endfacet
  facet normal 6.12303e-017 -1.22461e-016 1
    outer loop
      vertex -14.3696 1.90537 -3
      vertex -8 9.5 -3
      vertex -15.6709 3.37423 -3
    endloop
  endfacet
  facet normal 6.12303e-017 -1.22461e-016 1
    outer loop
      vertex -13.9 3.67382e-016 -3
      vertex -8 9.5 -3
      vertex -14.3696 1.90537 -3
    endloop
  endfacet
  facet normal 6.12303e-017 -1.22461e-016 1
    outer loop
      vertex -14.3696 -1.90536 -3
      vertex -8 9.5 -3
      vertex -13.9 3.67382e-016 -3
    endloop
  endfacet
  facet normal 6.12303e-017 -1.22461e-016 1
    outer loop
      vertex -8 -9.5 -3
      vertex -8 9.5 -3
      vertex -14.3696 -1.90536 -3
    endloop
  endfacet
  facet normal 6.12303e-017 -1.22461e-016 1
    outer loop
      vertex -19 -9.5 -3
      vertex -14.3696 -1.90536 -3
      vertex -15.6709 -3.37423 -3
    endloop
  endfacet
  facet normal 6.12303e-017 -1.22461e-016 1
    outer loop
      vertex -19 -9.5 -3
      vertex -15.6709 -3.37423 -3
      vertex -17.5058 -4.07011 -3
    endloop
  endfacet
  facet normal 6.12303e-017 -1.22461e-016 1
    outer loop
      vertex -19 -9.5 -3
      vertex -17.5058 -4.07011 -3
      vertex -19 -3.88868 -3
    endloop
  endfacet
  facet normal 6.12303e-017 -1.22461e-016 1
    outer loop
      vertex -8 -9.5 -3
      vertex -14.3696 -1.90536 -3
      vertex -19 -9.5 -3
    endloop
  endfacet
  facet normal -1 0 6.12303e-017
    outer loop
      vertex -8 9.5 -3
      vertex -8 -9.5 -3
      vertex -8 9.5 3
    endloop
  endfacet
  facet normal -1 0 6.12303e-017
    outer loop
      vertex -8 9.5 3
      vertex -8 -9.5 -3
      vertex -8 -9.5 3
    endloop
  endfacet
  facet normal -6.12303e-017 1.22461e-016 -1
    outer loop
      vertex -19 -3.88868 3
      vertex -17.5058 -4.07011 3
      vertex -19 -9.5 3
    endloop
  endfacet
  facet normal -6.12303e-017 1.22461e-016 -1
    outer loop
      vertex -19 -9.5 3
      vertex -17.5058 -4.07011 3
      vertex -15.6709 -3.37423 3
    endloop
  endfacet
  facet normal -6.12303e-017 1.22461e-016 -1
    outer loop
      vertex -15.6709 -3.37423 3
      vertex -14.3696 -1.90537 3
      vertex -19 -9.5 3
    endloop
  endfacet
  facet normal -6.12303e-017 1.22461e-016 -1
    outer loop
      vertex -13.9 -3.67382e-016 3
      vertex -8 9.5 3
      vertex -14.3696 -1.90537 3
    endloop
  endfacet
  facet normal -6.12303e-017 1.22461e-016 -1
    outer loop
      vertex -15.6709 3.37423 3
      vertex -19 9.5 3
      vertex -14.3696 1.90536 3
    endloop
  endfacet
  facet normal -6.12303e-017 1.22461e-016 -1
    outer loop
      vertex -17.5058 4.07011 3
      vertex -19 3.88868 3
      vertex -19 9.5 3
    endloop
  endfacet
  facet normal -6.12303e-017 1.22461e-016 -1
    outer loop
      vertex -17.5058 4.07011 3
      vertex -19 9.5 3
      vertex -15.6709 3.37423 3
    endloop
  endfacet
  facet normal -6.12303e-017 1.22461e-016 -1
    outer loop
      vertex -14.3696 1.90536 3
      vertex -19 9.5 3
      vertex -8 9.5 3
    endloop
  endfacet
  facet normal -6.12303e-017 1.22461e-016 -1
    outer loop
      vertex -14.3696 1.90536 3
      vertex -8 9.5 3
      vertex -13.9 -3.67382e-016 3
    endloop
  endfacet
  facet normal -6.12303e-017 1.22461e-016 -1
    outer loop
      vertex -14.3696 -1.90537 3
      vertex -8 9.5 3
      vertex -8 -9.5 3
    endloop
  endfacet
  facet normal -6.12303e-017 1.22461e-016 -1
    outer loop
      vertex -14.3696 -1.90537 3
      vertex -8 -9.5 3
      vertex -19 -9.5 3
    endloop
  endfacet
  facet normal -1 0 6.12303e-017
    outer loop
      vertex -19 -3.88868 3
      vertex -19 -9.5 3
      vertex -19 -3.88868 7.5
    endloop
  endfacet
  facet normal -1 0 6.12303e-017
    outer loop
      vertex -19 3.88868 3
      vertex -19 9.5 8.5
      vertex -19 9.5 3
    endloop
  endfacet
  facet normal -1 0 6.12303e-017
    outer loop
      vertex -19 -9.5 8.5
      vertex -19 9.5 8.5
      vertex -19 3.88868 7.5
    endloop
  endfacet
  facet normal -1 0 6.12303e-017
    outer loop
      vertex -19 -9.5 8.5
      vertex -19 3.88868 7.5
      vertex -19 -3.88868 7.5
    endloop
  endfacet
  facet normal -1 0 6.12303e-017
    outer loop
      vertex -19 -9.5 8.5
      vertex -19 -3.88868 7.5
      vertex -19 -9.5 3
    endloop
  endfacet
  facet normal -1 0 6.12303e-017
    outer loop
      vertex -19 3.88868 7.5
      vertex -19 9.5 8.5
      vertex -19 3.88868 3
    endloop
  endfacet
  facet normal 3.74915e-033 1 6.12303e-017
    outer loop
      vertex 19 9.5 8.5
      vertex 19 9.5 -8.5
      vertex -19 9.5 8.5
    endloop
  endfacet
  facet normal 3.74915e-033 1 6.12303e-017
    outer loop
      vertex -19 9.5 -3
      vertex 19 9.5 -8.5
      vertex -19 9.5 -8.5
    endloop
  endfacet
  facet normal 3.74915e-033 1 6.12303e-017
    outer loop
      vertex -8 9.5 -3
      vertex 19 9.5 -8.5
      vertex -19 9.5 -3
    endloop
  endfacet
  facet normal 3.74915e-033 1 6.12303e-017
    outer loop
      vertex -8 9.5 3
      vertex 19 9.5 -8.5
      vertex -8 9.5 -3
    endloop
  endfacet
  facet normal 3.74915e-033 1 6.12303e-017
    outer loop
      vertex -19 9.5 8.5
      vertex 19 9.5 -8.5
      vertex -8 9.5 3
    endloop
  endfacet
  facet normal 3.74915e-033 1 6.12303e-017
    outer loop
      vertex -19 9.5 3
      vertex -19 9.5 8.5
      vertex -8 9.5 3
    endloop
  endfacet
  facet normal 6.40034e-018 0.994522 0.104529
    outer loop
      vertex -8.51454e-017 -4.27975 -1.39058
      vertex 2.88014e-017 -4.47535 0.470378
      vertex 19 -4.27975 -1.39058
    endloop
  endfacet
  facet normal 6.40034e-018 0.994522 0.104529
    outer loop
      vertex 19 -4.27975 -1.39058
      vertex 2.88014e-017 -4.47535 0.470378
      vertex 19 -4.47535 0.470378
    endloop
  endfacet
  facet normal 3.06151e-017 0.866026 0.5
    outer loop
      vertex -1.8437e-016 -3.34415 -3.01109
      vertex -8.51454e-017 -4.27975 -1.39058
      vertex 19 -3.34415 -3.01109
    endloop
  endfacet
  facet normal 3.06151e-017 0.866026 0.5
    outer loop
      vertex 19 -3.34415 -3.01109
      vertex -8.51454e-017 -4.27975 -1.39058
      vertex 19 -4.27975 -1.39058
    endloop
  endfacet
  facet normal 4.95364e-017 0.587785 0.809017
    outer loop
      vertex 19 -1.83031 -4.11096
      vertex -2.51715e-016 -1.83031 -4.11095
      vertex -1.8437e-016 -3.34415 -3.01109
    endloop
  endfacet
  facet normal 4.95364e-017 0.587785 0.809017
    outer loop
      vertex 19 -3.34415 -3.01109
      vertex 19 -1.83031 -4.11096
      vertex -1.8437e-016 -3.34415 -3.01109
    endloop
  endfacet
  facet normal 5.98923e-017 0.207911 0.978148
    outer loop
      vertex 19 5.51073e-016 -4.5
      vertex -2.75536e-016 5.51073e-016 -4.5
      vertex -2.51715e-016 -1.83031 -4.11095
    endloop
  endfacet
  facet normal 5.98923e-017 0.207911 0.978148
    outer loop
      vertex 19 -1.83031 -4.11096
      vertex 19 5.51073e-016 -4.5
      vertex -2.51715e-016 -1.83031 -4.11095
    endloop
  endfacet
  facet normal 5.98923e-017 -0.207911 0.978148
    outer loop
      vertex 19 1.83032 -4.11096
      vertex -2.51715e-016 1.83032 -4.11095
      vertex -2.75536e-016 5.51073e-016 -4.5
    endloop
  endfacet
  facet normal 5.98923e-017 -0.207911 0.978148
    outer loop
      vertex 19 5.51073e-016 -4.5
      vertex 19 1.83032 -4.11096
      vertex -2.75536e-016 5.51073e-016 -4.5
    endloop
  endfacet
  facet normal 4.95364e-017 -0.587785 0.809017
    outer loop
      vertex 19 3.34415 -3.01109
      vertex -1.8437e-016 3.34415 -3.01109
      vertex -2.51715e-016 1.83032 -4.11095
    endloop
  endfacet
  facet normal 4.95364e-017 -0.587785 0.809017
    outer loop
      vertex 19 1.83032 -4.11096
      vertex 19 3.34415 -3.01109
      vertex -2.51715e-016 1.83032 -4.11095
    endloop
  endfacet
  facet normal 3.06151e-017 -0.866026 0.5
    outer loop
      vertex 19 4.27975 -1.39058
      vertex -8.51454e-017 4.27975 -1.39058
      vertex -1.8437e-016 3.34415 -3.01109
    endloop
  endfacet
  facet normal 3.06151e-017 -0.866026 0.5
    outer loop
      vertex 19 3.34415 -3.01109
      vertex 19 4.27975 -1.39058
      vertex -1.8437e-016 3.34415 -3.01109
    endloop
  endfacet
  facet normal 6.40034e-018 -0.994522 0.104529
    outer loop
      vertex 19 4.47535 0.470378
      vertex 2.88014e-017 4.47535 0.470378
      vertex -8.51454e-017 4.27975 -1.39058
    endloop
  endfacet
  facet normal 6.40034e-018 -0.994522 0.104529
    outer loop
      vertex 19 4.27975 -1.39058
      vertex 19 4.47535 0.470378
      vertex -8.51454e-017 4.27975 -1.39058
    endloop
  endfacet
  facet normal -1.89212e-017 -0.951056 -0.309017
    outer loop
      vertex 1.37768e-016 3.89711 2.25
      vertex 2.88014e-017 4.47535 0.470378
      vertex 19 4.47535 0.470378
    endloop
  endfacet
  facet normal -1.89212e-017 -0.951056 -0.309017
    outer loop
      vertex 19 3.89711 2.25
      vertex 1.37768e-016 3.89711 2.25
      vertex 19 4.47535 0.470378
    endloop
  endfacet
  facet normal -4.09711e-017 -0.743145 -0.669131
    outer loop
      vertex 2.22914e-016 2.64503 3.64058
      vertex 1.37768e-016 3.89711 2.25
      vertex 19 3.89711 2.25
    endloop
  endfacet
  facet normal -4.09711e-017 -0.743145 -0.669131
    outer loop
      vertex 19 2.64503 3.64058
      vertex 2.22914e-016 2.64503 3.64058
      vertex 19 3.89711 2.25
    endloop
  endfacet
  facet normal -5.59367e-017 -0.406737 -0.913545
    outer loop
      vertex 2.22914e-016 2.64503 3.64058
      vertex 19 2.64503 3.64058
      vertex 2.69515e-016 0.935603 4.40166
    endloop
  endfacet
  facet normal -5.59367e-017 -0.406737 -0.913545
    outer loop
      vertex 2.69515e-016 0.935603 4.40166
      vertex 19 2.64503 3.64058
      vertex 19 0.935603 4.40166
    endloop
  endfacet
  facet normal -6.12303e-017 1.22461e-016 -1
    outer loop
      vertex 2.69515e-016 0.935603 4.40166
      vertex 19 0.935603 4.40166
      vertex 2.69515e-016 -0.935603 4.40166
    endloop
  endfacet
  facet normal -6.12303e-017 1.22461e-016 -1
    outer loop
      vertex 2.69515e-016 -0.935603 4.40166
      vertex 19 0.935603 4.40166
      vertex 19 -0.935603 4.40166
    endloop
  endfacet
  facet normal -5.59367e-017 0.406737 -0.913545
    outer loop
      vertex 2.69515e-016 -0.935603 4.40166
      vertex 19 -0.935603 4.40166
      vertex 2.22914e-016 -2.64503 3.64058
    endloop
  endfacet
  facet normal -5.59367e-017 0.406737 -0.913545
    outer loop
      vertex 2.22914e-016 -2.64503 3.64058
      vertex 19 -0.935603 4.40166
      vertex 19 -2.64503 3.64058
    endloop
  endfacet
  facet normal -4.09711e-017 0.743145 -0.669131
    outer loop
      vertex 2.22914e-016 -2.64503 3.64058
      vertex 19 -2.64503 3.64058
      vertex 1.37768e-016 -3.89711 2.25
    endloop
  endfacet
  facet normal -4.09711e-017 0.743145 -0.669131
    outer loop
      vertex 1.37768e-016 -3.89711 2.25
      vertex 19 -2.64503 3.64058
      vertex 19 -3.89711 2.25
    endloop
  endfacet
  facet normal -1.89212e-017 0.951056 -0.309017
    outer loop
      vertex 1.37768e-016 -3.89711 2.25
      vertex 19 -3.89711 2.25
      vertex 2.88014e-017 -4.47535 0.470378
    endloop
  endfacet
  facet normal -1.89212e-017 0.951056 -0.309017
    outer loop
      vertex 2.88014e-017 -4.47535 0.470378
      vertex 19 -3.89711 2.25
      vertex 19 -4.47535 0.470378
    endloop
  endfacet
  facet normal 0.120536 -0.992709 -1.36329e-016
    outer loop
      vertex -19 3.88868 -7.5
      vertex -17.5058 4.07011 -7.5
      vertex -17.5058 4.07011 -3
    endloop
  endfacet
  facet normal 0.120536 -0.992709 -1.36329e-016
    outer loop
      vertex -19 3.88868 -3
      vertex -19 3.88868 -7.5
      vertex -17.5058 4.07011 -3
    endloop
  endfacet
  facet normal 1.22461e-016 -1.22461e-016 1
    outer loop
      vertex -15.6709 -3.37423 -7.5
      vertex -14.3696 -1.90536 -7.5
      vertex -13.9 9.18455e-016 -7.5
    endloop
  endfacet
  facet normal 1.22461e-016 -1.22461e-016 1
    outer loop
      vertex -15.6709 3.37423 -7.5
      vertex -15.6709 -3.37423 -7.5
      vertex -14.3696 1.90537 -7.5
    endloop
  endfacet
  facet normal 1.22461e-016 -1.22461e-016 1
    outer loop
      vertex -14.3696 1.90537 -7.5
      vertex -15.6709 -3.37423 -7.5
      vertex -13.9 9.18455e-016 -7.5
    endloop
  endfacet
  facet normal 1.22461e-016 -1.22461e-016 1
    outer loop
      vertex -17.5058 4.07011 -7.5
      vertex -15.6709 -3.37423 -7.5
      vertex -15.6709 3.37423 -7.5
    endloop
  endfacet
  facet normal 1.22461e-016 -1.22461e-016 1
    outer loop
      vertex -19 3.88868 -7.5
      vertex -15.6709 -3.37423 -7.5
      vertex -17.5058 4.07011 -7.5
    endloop
  endfacet
  facet normal 1.22461e-016 -1.22461e-016 1
    outer loop
      vertex -19 -3.88868 -7.5
      vertex -15.6709 -3.37423 -7.5
      vertex -19 3.88868 -7.5
    endloop
  endfacet
  facet normal 1.22461e-016 -1.22461e-016 1
    outer loop
      vertex -17.5058 -4.07011 -7.5
      vertex -15.6709 -3.37423 -7.5
      vertex -19 -3.88868 -7.5
    endloop
  endfacet
  facet normal 0.120536 0.992709 1.06807e-016
    outer loop
      vertex -19 -3.88868 -7.5
      vertex -19 -3.88868 -3
      vertex -17.5058 -4.07011 -7.5
    endloop
  endfacet
  facet normal 0.120536 0.992709 1.06807e-016
    outer loop
      vertex -17.5058 -4.07011 -7.5
      vertex -19 -3.88868 -3
      vertex -17.5058 -4.07011 -3
    endloop
  endfacet
  facet normal -0.354605 0.935016 1.57928e-016
    outer loop
      vertex -15.6709 -3.37423 -7.5
      vertex -17.5058 -4.07011 -7.5
      vertex -15.6709 -3.37423 -3
    endloop
  endfacet
  facet normal -0.354605 0.935016 1.57928e-016
    outer loop
      vertex -15.6709 -3.37423 -3
      vertex -17.5058 -4.07011 -7.5
      vertex -17.5058 -4.07011 -3
    endloop
  endfacet
  facet normal -0.748511 0.663123 1.7287e-016
    outer loop
      vertex -14.3696 -1.90536 -7.5
      vertex -15.6709 -3.37423 -7.5
      vertex -14.3696 -1.90536 -3
    endloop
  endfacet
  facet normal -0.748511 0.663123 1.7287e-016
    outer loop
      vertex -14.3696 -1.90536 -3
      vertex -15.6709 -3.37423 -7.5
      vertex -15.6709 -3.37423 -3
    endloop
  endfacet
  facet normal -0.970942 0.239316 1.48209e-016
    outer loop
      vertex -13.9 9.18455e-016 -7.5
      vertex -14.3696 -1.90536 -7.5
      vertex -13.9 3.67382e-016 -3
    endloop
  endfacet
  facet normal -0.970942 0.239316 1.48209e-016
    outer loop
      vertex -13.9 3.67382e-016 -3
      vertex -14.3696 -1.90536 -7.5
      vertex -14.3696 -1.90536 -3
    endloop
  endfacet
  facet normal -0.970942 -0.239316 8.95954e-017
    outer loop
      vertex -14.3696 1.90537 -7.5
      vertex -13.9 9.18455e-016 -7.5
      vertex -14.3696 1.90537 -3
    endloop
  endfacet
  facet normal -0.970942 -0.239316 8.95954e-017
    outer loop
      vertex -14.3696 1.90537 -3
      vertex -13.9 9.18455e-016 -7.5
      vertex -13.9 3.67382e-016 -3
    endloop
  endfacet
  facet normal -0.748511 -0.663123 1.04566e-017
    outer loop
      vertex -15.6709 3.37423 -7.5
      vertex -14.3696 1.90537 -7.5
      vertex -15.6709 3.37423 -3
    endloop
  endfacet
  facet normal -0.748511 -0.663123 1.04566e-017
    outer loop
      vertex -15.6709 3.37423 -3
      vertex -14.3696 1.90537 -7.5
      vertex -14.3696 1.90537 -3
    endloop
  endfacet
  facet normal -0.354605 -0.935016 -7.10776e-017
    outer loop
      vertex -17.5058 4.07011 -3
      vertex -17.5058 4.07011 -7.5
      vertex -15.6709 3.37423 -7.5
    endloop
  endfacet
  facet normal -0.354605 -0.935016 -7.10776e-017
    outer loop
      vertex -15.6709 3.37423 -3
      vertex -17.5058 4.07011 -3
      vertex -15.6709 3.37423 -7.5
    endloop
  endfacet
  facet normal 0.120536 -0.992709 -1.36329e-016
    outer loop
      vertex -19 3.88868 3
      vertex -17.5058 4.07011 3
      vertex -17.5058 4.07011 7.5
    endloop
  endfacet
  facet normal 0.120536 -0.992709 -1.36329e-016
    outer loop
      vertex -19 3.88868 7.5
      vertex -19 3.88868 3
      vertex -17.5058 4.07011 7.5
    endloop
  endfacet
  facet normal -0.354605 -0.935016 -7.10776e-017
    outer loop
      vertex -17.5058 4.07011 7.5
      vertex -17.5058 4.07011 3
      vertex -15.6709 3.37423 3
    endloop
  endfacet
  facet normal -0.354605 -0.935016 -7.10776e-017
    outer loop
      vertex -15.6709 3.37423 7.5
      vertex -17.5058 4.07011 7.5
      vertex -15.6709 3.37423 3
    endloop
  endfacet
  facet normal -0.748511 -0.663123 1.04566e-017
    outer loop
      vertex -15.6709 3.37423 3
      vertex -14.3696 1.90536 3
      vertex -15.6709 3.37423 7.5
    endloop
  endfacet
  facet normal -0.748511 -0.663123 1.04566e-017
    outer loop
      vertex -15.6709 3.37423 7.5
      vertex -14.3696 1.90536 3
      vertex -14.3696 1.90536 7.5
    endloop
  endfacet
  facet normal -0.970942 -0.239316 8.95954e-017
    outer loop
      vertex -14.3696 1.90536 3
      vertex -13.9 -3.67382e-016 3
      vertex -14.3696 1.90536 7.5
    endloop
  endfacet
  facet normal -0.970942 -0.239316 8.95954e-017
    outer loop
      vertex -14.3696 1.90536 7.5
      vertex -13.9 -3.67382e-016 3
      vertex -13.9 -9.18455e-016 7.5
    endloop
  endfacet
  facet normal -0.970942 0.239316 1.48209e-016
    outer loop
      vertex -13.9 -3.67382e-016 3
      vertex -14.3696 -1.90537 3
      vertex -13.9 -9.18455e-016 7.5
    endloop
  endfacet
  facet normal -0.970942 0.239316 1.48209e-016
    outer loop
      vertex -13.9 -9.18455e-016 7.5
      vertex -14.3696 -1.90537 3
      vertex -14.3696 -1.90537 7.5
    endloop
  endfacet
  facet normal -0.748511 0.663123 1.7287e-016
    outer loop
      vertex -14.3696 -1.90537 3
      vertex -15.6709 -3.37423 3
      vertex -14.3696 -1.90537 7.5
    endloop
  endfacet
  facet normal -0.748511 0.663123 1.7287e-016
    outer loop
      vertex -14.3696 -1.90537 7.5
      vertex -15.6709 -3.37423 3
      vertex -15.6709 -3.37423 7.5
    endloop
  endfacet
  facet normal -0.354605 0.935016 1.57928e-016
    outer loop
      vertex -15.6709 -3.37423 3
      vertex -17.5058 -4.07011 3
      vertex -15.6709 -3.37423 7.5
    endloop
  endfacet
  facet normal -0.354605 0.935016 1.57928e-016
    outer loop
      vertex -15.6709 -3.37423 7.5
      vertex -17.5058 -4.07011 3
      vertex -17.5058 -4.07011 7.5
    endloop
  endfacet
  facet normal 0.120536 0.992709 1.06807e-016
    outer loop
      vertex -19 -3.88868 3
      vertex -19 -3.88868 7.5
      vertex -17.5058 -4.07011 3
    endloop
  endfacet
  facet normal 0.120536 0.992709 1.06807e-016
    outer loop
      vertex -17.5058 -4.07011 3
      vertex -19 -3.88868 7.5
      vertex -17.5058 -4.07011 7.5
    endloop
  endfacet
  facet normal -1.22461e-016 1.22461e-016 -1
    outer loop
      vertex -19 3.88868 7.5
      vertex -17.5058 4.07011 7.5
      vertex -19 -3.88868 7.5
    endloop
  endfacet
  facet normal -1.22461e-016 1.22461e-016 -1
    outer loop
      vertex -19 -3.88868 7.5
      vertex -17.5058 4.07011 7.5
      vertex -15.6709 3.37423 7.5
    endloop
  endfacet
  facet normal -1.22461e-016 1.22461e-016 -1
    outer loop
      vertex -19 -3.88868 7.5
      vertex -15.6709 3.37423 7.5
      vertex -14.3696 1.90536 7.5
    endloop
  endfacet
  facet normal -1.22461e-016 1.22461e-016 -1
    outer loop
      vertex -19 -3.88868 7.5
      vertex -14.3696 1.90536 7.5
      vertex -13.9 -9.18455e-016 7.5
    endloop
  endfacet
  facet normal -1.22461e-016 1.22461e-016 -1
    outer loop
      vertex -19 -3.88868 7.5
      vertex -13.9 -9.18455e-016 7.5
      vertex -14.3696 -1.90537 7.5
    endloop
  endfacet
  facet normal -1.22461e-016 1.22461e-016 -1
    outer loop
      vertex -19 -3.88868 7.5
      vertex -14.3696 -1.90537 7.5
      vertex -15.6709 -3.37423 7.5
    endloop
  endfacet
  facet normal -1.22461e-016 1.22461e-016 -1
    outer loop
      vertex -19 -3.88868 7.5
      vertex -15.6709 -3.37423 7.5
      vertex -17.5058 -4.07011 7.5
    endloop
  endfacet
  facet normal 1 0 -6.12303e-017
    outer loop
      vertex -8.51454e-017 -4.27975 -1.39058
      vertex -1.8437e-016 -3.34415 -3.01109
      vertex -2.51715e-016 -1.83031 -4.11095
    endloop
  endfacet
  facet normal 1 0 -6.12303e-017
    outer loop
      vertex -2.51715e-016 1.83032 -4.11095
      vertex -8.51454e-017 -4.27975 -1.39058
      vertex -2.75536e-016 5.51073e-016 -4.5
    endloop
  endfacet
  facet normal 1 0 -6.12303e-017
    outer loop
      vertex -2.75536e-016 5.51073e-016 -4.5
      vertex -8.51454e-017 -4.27975 -1.39058
      vertex -2.51715e-016 -1.83031 -4.11095
    endloop
  endfacet
  facet normal 1 0 -6.12303e-017
    outer loop
      vertex -1.8437e-016 3.34415 -3.01109
      vertex -8.51454e-017 -4.27975 -1.39058
      vertex -2.51715e-016 1.83032 -4.11095
    endloop
  endfacet
  facet normal 1 0 -6.12303e-017
    outer loop
      vertex -8.51454e-017 4.27975 -1.39058
      vertex -8.51454e-017 -4.27975 -1.39058
      vertex -1.8437e-016 3.34415 -3.01109
    endloop
  endfacet
  facet normal 1 0 -6.12303e-017
    outer loop
      vertex 2.88014e-017 4.47535 0.470378
      vertex -8.51454e-017 -4.27975 -1.39058
      vertex -8.51454e-017 4.27975 -1.39058
    endloop
  endfacet
  facet normal 1 0 -6.12303e-017
    outer loop
      vertex 1.37768e-016 3.89711 2.25
      vertex -8.51454e-017 -4.27975 -1.39058
      vertex 2.88014e-017 4.47535 0.470378
    endloop
  endfacet
  facet normal 1 0 -6.12303e-017
    outer loop
      vertex 2.22914e-016 2.64503 3.64058
      vertex -8.51454e-017 -4.27975 -1.39058
      vertex 1.37768e-016 3.89711 2.25
    endloop
  endfacet
  facet normal 1 0 -6.12303e-017
    outer loop
      vertex 2.69515e-016 0.935603 4.40166
      vertex -8.51454e-017 -4.27975 -1.39058
      vertex 2.22914e-016 2.64503 3.64058
    endloop
  endfacet
  facet normal 1 0 -6.12303e-017
    outer loop
      vertex 2.69515e-016 -0.935603 4.40166
      vertex -8.51454e-017 -4.27975 -1.39058
      vertex 2.69515e-016 0.935603 4.40166
    endloop
  endfacet
  facet normal 1 0 -6.12303e-017
    outer loop
      vertex 2.22914e-016 -2.64503 3.64058
      vertex -8.51454e-017 -4.27975 -1.39058
      vertex 2.69515e-016 -0.935603 4.40166
    endloop
  endfacet
  facet normal 1 0 -6.12303e-017
    outer loop
      vertex 1.37768e-016 -3.89711 2.25
      vertex -8.51454e-017 -4.27975 -1.39058
      vertex 2.22914e-016 -2.64503 3.64058
    endloop
  endfacet
  facet normal 1 0 -6.12303e-017
    outer loop
      vertex 2.88014e-017 -4.47535 0.470378
      vertex -8.51454e-017 -4.27975 -1.39058
      vertex 1.37768e-016 -3.89711 2.25
    endloop
  endfacet
endsolid OpenSCAD_Model
