solid OpenSCAD_Model
  facet normal -1 0 0
    outer loop
      vertex 0 0 0
      vertex 0 0 10
      vertex 0 3 0
    endloop
  endfacet
  facet normal -1 0 0
    outer loop
      vertex 0 3 0
      vertex 0 0 10
      vertex 0 3 10
    endloop
  endfacet
  facet normal 0 -1 0
    outer loop
      vertex 11.6947 0 3.51786
      vertex 0 0 0
      vertex 20 0 0
    endloop
  endfacet
  facet normal 0 -1 0
    outer loop
      vertex 5.3497 0 5.17665
      vertex 4.69697 0 5.90514
      vertex 0 0 10
    endloop
  endfacet
  facet normal 0 -1 0
    outer loop
      vertex 20 0 10
      vertex 16.7 0 10
      vertex 20 0 0
    endloop
  endfacet
  facet normal 0 -1 0
    outer loop
      vertex 16.7 0 10
      vertex 16.6286 0 9.02447
      vertex 20 0 0
    endloop
  endfacet
  facet normal 0 -1 0
    outer loop
      vertex 16.6286 0 9.02447
      vertex 16.4159 0 8.06974
      vertex 20 0 0
    endloop
  endfacet
  facet normal 0 -1 0
    outer loop
      vertex 16.4159 0 8.06974
      vertex 16.0665 0 7.15614
      vertex 20 0 0
    endloop
  endfacet
  facet normal 0 -1 0
    outer loop
      vertex 16.0665 0 7.15614
      vertex 15.5878 0 6.30316
      vertex 20 0 0
    endloop
  endfacet
  facet normal 0 -1 0
    outer loop
      vertex 15.5878 0 6.30316
      vertex 14.99 0 5.52896
      vertex 20 0 0
    endloop
  endfacet
  facet normal 0 -1 0
    outer loop
      vertex 3.31787 0 9.51093
      vertex 3.31787 0 10
      vertex 0 0 10
    endloop
  endfacet
  facet normal 0 -1 0
    outer loop
      vertex 14.99 0 5.52896
      vertex 14.2858 0 4.85006
      vertex 20 0 0
    endloop
  endfacet
  facet normal 0 -1 0
    outer loop
      vertex 14.2858 0 4.85006
      vertex 13.4903 0 4.28093
      vertex 20 0 0
    endloop
  endfacet
  facet normal 0 -1 0
    outer loop
      vertex 13.4903 0 4.28093
      vertex 12.6204 0 3.83368
      vertex 20 0 0
    endloop
  endfacet
  facet normal 0 -1 0
    outer loop
      vertex 10.7328 0 3.34019
      vertex 0 0 0
      vertex 11.6947 0 3.51786
    endloop
  endfacet
  facet normal 0 -1 0
    outer loop
      vertex 9.7553 0 3.30447
      vertex 0 0 0
      vertex 10.7328 0 3.34019
    endloop
  endfacet
  facet normal 0 -1 0
    outer loop
      vertex 8.78303 0 3.41145
      vertex 0 0 0
      vertex 9.7553 0 3.30447
    endloop
  endfacet
  facet normal 0 -1 0
    outer loop
      vertex 7.8367 0 3.65885
      vertex 0 0 0
      vertex 8.78303 0 3.41145
    endloop
  endfacet
  facet normal 0 -1 0
    outer loop
      vertex 6.93648 0 4.04141
      vertex 0 0 0
      vertex 7.8367 0 3.65885
    endloop
  endfacet
  facet normal 0 -1 0
    outer loop
      vertex 6.10154 0 4.55096
      vertex 0 0 0
      vertex 6.93648 0 4.04141
    endloop
  endfacet
  facet normal 0 -1 0
    outer loop
      vertex 5.3497 0 5.17665
      vertex 0 0 0
      vertex 6.10154 0 4.55096
    endloop
  endfacet
  facet normal 0 -1 0
    outer loop
      vertex 0 0 10
      vertex 0 0 0
      vertex 5.3497 0 5.17665
    endloop
  endfacet
  facet normal 0 -1 0
    outer loop
      vertex 4.15727 0 6.7209
      vertex 3.74209 0 7.60655
      vertex 0 0 10
    endloop
  endfacet
  facet normal 0 -1 0
    outer loop
      vertex 3.46029 0 8.54322
      vertex 3.31787 0 9.51093
      vertex 0 0 10
    endloop
  endfacet
  facet normal 0 -1 0
    outer loop
      vertex 12.6204 0 3.83368
      vertex 11.6947 0 3.51786
      vertex 20 0 0
    endloop
  endfacet
  facet normal 0 -1 0
    outer loop
      vertex 4.69697 0 5.90514
      vertex 4.15727 0 6.7209
      vertex 0 0 10
    endloop
  endfacet
  facet normal 0 -1 0
    outer loop
      vertex 3.74209 0 7.60655
      vertex 3.46029 0 8.54322
      vertex 0 0 10
    endloop
  endfacet
  facet normal 0 0 -1
    outer loop
      vertex 0 0 0
      vertex 0 3 0
      vertex 20 0 0
    endloop
  endfacet
  facet normal 0 0 -1
    outer loop
      vertex 20 0 0
      vertex 0 3 0
      vertex 1 3 0
    endloop
  endfacet
  facet normal 0 0 -1
    outer loop
      vertex 20 0 0
      vertex 1 3 0
      vertex 1 6 0
    endloop
  endfacet
  facet normal 0 0 -1
    outer loop
      vertex 1 6 0
      vertex 0 6 0
      vertex 0 22 0
    endloop
  endfacet
  facet normal 0 0 -1
    outer loop
      vertex 1 6 0
      vertex 0 22 0
      vertex 20 0 0
    endloop
  endfacet
  facet normal 0 0 -1
    outer loop
      vertex 20 0 0
      vertex 0 22 0
      vertex 1 22 0
    endloop
  endfacet
  facet normal 0 0 -1
    outer loop
      vertex 20 0 0
      vertex 1 22 0
      vertex 1 25 0
    endloop
  endfacet
  facet normal 0 0 -1
    outer loop
      vertex 1 25 0
      vertex 0 25 0
      vertex 0 28 0
    endloop
  endfacet
  facet normal 0 0 -1
    outer loop
      vertex 1 25 0
      vertex 0 28 0
      vertex 20 0 0
    endloop
  endfacet
  facet normal 0 0 -1
    outer loop
      vertex 20 25 0
      vertex 0 28 0
      vertex 20 28 0
    endloop
  endfacet
  facet normal 0 0 -1
    outer loop
      vertex 19 25 0
      vertex 0 28 0
      vertex 20 25 0
    endloop
  endfacet
  facet normal 0 0 -1
    outer loop
      vertex 19 22 0
      vertex 0 28 0
      vertex 19 25 0
    endloop
  endfacet
  facet normal 0 0 -1
    outer loop
      vertex 19 6 0
      vertex 0 28 0
      vertex 19 22 0
    endloop
  endfacet
  facet normal 0 0 -1
    outer loop
      vertex 26 8 0
      vertex 36 19 0
      vertex 40 20 0
    endloop
  endfacet
  facet normal 0 0 -1
    outer loop
      vertex 26 19 0
      vertex 26 20 0
      vertex 33 20 0
    endloop
  endfacet
  facet normal 0 0 -1
    outer loop
      vertex 20 8 0
      vertex 23 19 0
      vertex 26 19 0
    endloop
  endfacet
  facet normal 0 0 -1
    outer loop
      vertex 26 9 0
      vertex 33 20 0
      vertex 33 19 0
    endloop
  endfacet
  facet normal 0 0 -1
    outer loop
      vertex 26 8 0
      vertex 33 19 0
      vertex 36 19 0
    endloop
  endfacet
  facet normal 0 0 -1
    outer loop
      vertex 36 19 0
      vertex 36 20 0
      vertex 40 20 0
    endloop
  endfacet
  facet normal 0 0 -1
    outer loop
      vertex 36 8 0
      vertex 40 20 0
      vertex 40 8 0
    endloop
  endfacet
  facet normal 0 0 -1
    outer loop
      vertex 36 9 0
      vertex 40 20 0
      vertex 36 8 0
    endloop
  endfacet
  facet normal 0 0 -1
    outer loop
      vertex 33 9 0
      vertex 40 20 0
      vertex 36 9 0
    endloop
  endfacet
  facet normal 0 0 -1
    outer loop
      vertex 20 8 0
      vertex 23 9 0
      vertex 23 8 0
    endloop
  endfacet
  facet normal 0 0 -1
    outer loop
      vertex 26 9 0
      vertex 33 19 0
      vertex 26 8 0
    endloop
  endfacet
  facet normal 0 0 -1
    outer loop
      vertex 20 8 0
      vertex 26 19 0
      vertex 23 9 0
    endloop
  endfacet
  facet normal 0 0 -1
    outer loop
      vertex 23 9 0
      vertex 33 20 0
      vertex 26 9 0
    endloop
  endfacet
  facet normal 0 0 -1
    outer loop
      vertex 26 19 0
      vertex 33 20 0
      vertex 23 9 0
    endloop
  endfacet
  facet normal 0 0 -1
    outer loop
      vertex 20 8 0
      vertex 23 20 0
      vertex 23 19 0
    endloop
  endfacet
  facet normal 0 0 -1
    outer loop
      vertex 20 20 0
      vertex 23 20 0
      vertex 20 8 0
    endloop
  endfacet
  facet normal 0 0 -1
    outer loop
      vertex 26 8 0
      vertex 40 20 0
      vertex 33 9 0
    endloop
  endfacet
  facet normal 0 0 -1
    outer loop
      vertex 19 6 0
      vertex 19 22 0
      vertex 20 6 0
    endloop
  endfacet
  facet normal 0 0 -1
    outer loop
      vertex 26 8 0
      vertex 33 9 0
      vertex 33 8 0
    endloop
  endfacet
  facet normal 0 0 -1
    outer loop
      vertex 19 3 0
      vertex 0 28 0
      vertex 19 6 0
    endloop
  endfacet
  facet normal 0 0 -1
    outer loop
      vertex 20 3 0
      vertex 20 0 0
      vertex 19 3 0
    endloop
  endfacet
  facet normal 0 0 -1
    outer loop
      vertex 20 0 0
      vertex 0 28 0
      vertex 19 3 0
    endloop
  endfacet
  facet normal 0 0 -1
    outer loop
      vertex 20 8 0
      vertex 20 6 0
      vertex 19 22 0
    endloop
  endfacet
  facet normal 0 0 -1
    outer loop
      vertex 20 20 0
      vertex 20 8 0
      vertex 19 22 0
    endloop
  endfacet
  facet normal 0 0 -1
    outer loop
      vertex 20 22 0
      vertex 20 20 0
      vertex 19 22 0
    endloop
  endfacet
  facet normal 0 1 0
    outer loop
      vertex 1 3 10
      vertex 1 3 0
      vertex 0 3 10
    endloop
  endfacet
  facet normal 0 1 0
    outer loop
      vertex 0 3 10
      vertex 1 3 0
      vertex 0 3 0
    endloop
  endfacet
  facet normal 0 0 1
    outer loop
      vertex 0 3 10
      vertex 0 0 10
      vertex 3.31787 0 10
    endloop
  endfacet
  facet normal 0 0 1
    outer loop
      vertex 1 22 10
      vertex 0 22 10
      vertex 0 6 10
    endloop
  endfacet
  facet normal 0 0 1
    outer loop
      vertex 1.8 1.65 10
      vertex 0 3 10
      vertex 3.31787 0 10
    endloop
  endfacet
  facet normal 0 0 1
    outer loop
      vertex 3.31787 1.65 10
      vertex 1.8 1.65 10
      vertex 3.31787 0 10
    endloop
  endfacet
  facet normal 0 0 1
    outer loop
      vertex 0 6 10
      vertex 1 6 10
      vertex 1.8 14 10
    endloop
  endfacet
  facet normal 0 0 1
    outer loop
      vertex 3.31787 28 10
      vertex 1.8 26.35 10
      vertex 3.31787 26.35 10
    endloop
  endfacet
  facet normal 0 0 1
    outer loop
      vertex 0 28 10
      vertex 1.8 26.35 10
      vertex 3.31787 28 10
    endloop
  endfacet
  facet normal 0 0 1
    outer loop
      vertex 0 28 10
      vertex 0 25 10
      vertex 1.8 26.35 10
    endloop
  endfacet
  facet normal 0 0 1
    outer loop
      vertex 0 25 10
      vertex 1 25 10
      vertex 1.8 26.35 10
    endloop
  endfacet
  facet normal 0 0 1
    outer loop
      vertex 0 6 10
      vertex 1.8 26.35 10
      vertex 1 22 10
    endloop
  endfacet
  facet normal 0 0 1
    outer loop
      vertex 1 25 10
      vertex 1 22 10
      vertex 1.8 26.35 10
    endloop
  endfacet
  facet normal 0 0 1
    outer loop
      vertex 0 6 10
      vertex 1.8 14 10
      vertex 1.8 26.35 10
    endloop
  endfacet
  facet normal 0 0 1
    outer loop
      vertex 1.8 1.65 10
      vertex 1 3 10
      vertex 0 3 10
    endloop
  endfacet
  facet normal 0 0 1
    outer loop
      vertex 1.8 1.65 10
      vertex 1 6 10
      vertex 1 3 10
    endloop
  endfacet
  facet normal 0 0 1
    outer loop
      vertex 1.8 1.65 10
      vertex 1.8 14 10
      vertex 1 6 10
    endloop
  endfacet
  facet normal 1 0 0
    outer loop
      vertex 3.31787 1.65 9.51093
      vertex 3.31787 1.65 10
      vertex 3.31787 0 10
    endloop
  endfacet
  facet normal 1 0 0
    outer loop
      vertex 3.31787 0 9.51093
      vertex 3.31787 1.65 9.51093
      vertex 3.31787 0 10
    endloop
  endfacet
  facet normal 0.989343 8.91522e-018 0.145601
    outer loop
      vertex 3.46029 0 8.54322
      vertex 3.46029 1.65 8.54322
      vertex 3.31787 1.65 9.51093
    endloop
  endfacet
  facet normal 0.989343 8.91522e-018 0.145601
    outer loop
      vertex 3.31787 0 9.51093
      vertex 3.46029 0 8.54322
      vertex 3.31787 1.65 9.51093
    endloop
  endfacet
  facet normal 0.957601 1.76404e-017 0.288099
    outer loop
      vertex 3.74209 0 7.60655
      vertex 3.74209 1.65 7.60655
      vertex 3.46029 1.65 8.54322
    endloop
  endfacet
  facet normal 0.957601 1.76404e-017 0.288099
    outer loop
      vertex 3.46029 0 8.54322
      vertex 3.74209 0 7.60655
      vertex 3.46029 1.65 8.54322
    endloop
  endfacet
  facet normal 0.905448 2.59896e-017 0.424457
    outer loop
      vertex 4.15727 0 6.7209
      vertex 4.15727 1.65 6.7209
      vertex 3.74209 1.65 7.60655
    endloop
  endfacet
  facet normal 0.905448 2.59896e-017 0.424457
    outer loop
      vertex 3.74209 0 7.60655
      vertex 4.15727 0 6.7209
      vertex 3.74209 1.65 7.60655
    endloop
  endfacet
  facet normal 0.833998 3.37849e-017 0.551768
    outer loop
      vertex 4.69697 0 5.90514
      vertex 4.69697 1.65 5.90514
      vertex 4.15727 1.65 6.7209
    endloop
  endfacet
  facet normal 0.833998 3.37849e-017 0.551768
    outer loop
      vertex 4.15727 0 6.7209
      vertex 4.69697 0 5.90514
      vertex 4.15727 1.65 6.7209
    endloop
  endfacet
  facet normal 0.744772 4.08601e-017 0.667319
    outer loop
      vertex 5.3497 0 5.17665
      vertex 5.3497 1.65 5.17665
      vertex 4.69697 1.65 5.90514
    endloop
  endfacet
  facet normal 0.744772 4.08601e-017 0.667319
    outer loop
      vertex 4.69697 0 5.90514
      vertex 5.3497 0 5.17665
      vertex 4.69697 1.65 5.90514
    endloop
  endfacet
  facet normal 0.639673 4.70645e-017 0.768647
    outer loop
      vertex 6.10154 0 4.55096
      vertex 6.10154 1.65 4.55096
      vertex 5.3497 1.65 5.17665
    endloop
  endfacet
  facet normal 0.639673 4.70645e-017 0.768647
    outer loop
      vertex 5.3497 0 5.17665
      vertex 6.10154 0 4.55096
      vertex 5.3497 1.65 5.17665
    endloop
  endfacet
  facet normal 0.52094 5.22658e-017 0.853593
    outer loop
      vertex 6.93648 0 4.04141
      vertex 6.93648 1.65 4.04141
      vertex 6.10154 1.65 4.55096
    endloop
  endfacet
  facet normal 0.52094 5.22658e-017 0.853593
    outer loop
      vertex 6.10154 0 4.55096
      vertex 6.93648 0 4.04141
      vertex 6.10154 1.65 4.55096
    endloop
  endfacet
  facet normal 0.391105 5.63531e-017 0.920346
    outer loop
      vertex 7.8367 0 3.65885
      vertex 7.8367 1.65 3.65885
      vertex 6.93648 1.65 4.04141
    endloop
  endfacet
  facet normal 0.391105 5.63531e-017 0.920346
    outer loop
      vertex 6.93648 0 4.04141
      vertex 7.8367 0 3.65885
      vertex 6.93648 1.65 4.04141
    endloop
  endfacet
  facet normal 0.252934 5.92393e-017 0.967484
    outer loop
      vertex 8.78303 0 3.41145
      vertex 8.78303 1.65 3.41145
      vertex 7.8367 1.65 3.65885
    endloop
  endfacet
  facet normal 0.252934 5.92393e-017 0.967484
    outer loop
      vertex 7.8367 0 3.65885
      vertex 8.78303 0 3.41145
      vertex 7.8367 1.65 3.65885
    endloop
  endfacet
  facet normal 0.109371 6.0863e-017 0.994001
    outer loop
      vertex 9.7553 0 3.30447
      vertex 9.7553 1.65 3.30447
      vertex 8.78303 1.65 3.41145
    endloop
  endfacet
  facet normal 0.109371 6.0863e-017 0.994001
    outer loop
      vertex 8.78303 0 3.41145
      vertex 9.7553 0 3.30447
      vertex 8.78303 1.65 3.41145
    endloop
  endfacet
  facet normal -0.0365214 6.11895e-017 0.999333
    outer loop
      vertex 10.7328 0 3.34019
      vertex 10.7328 1.65 3.34019
      vertex 9.7553 1.65 3.30447
    endloop
  endfacet
  facet normal -0.0365214 6.11895e-017 0.999333
    outer loop
      vertex 9.7553 0 3.30447
      vertex 10.7328 0 3.34019
      vertex 9.7553 1.65 3.30447
    endloop
  endfacet
  facet normal -0.181637 6.02118e-017 0.983366
    outer loop
      vertex 11.6947 0 3.51786
      vertex 11.6947 1.65 3.51786
      vertex 10.7328 1.65 3.34019
    endloop
  endfacet
  facet normal -0.181637 6.02118e-017 0.983366
    outer loop
      vertex 10.7328 0 3.34019
      vertex 11.6947 0 3.51786
      vertex 10.7328 1.65 3.34019
    endloop
  endfacet
  facet normal -0.322881 5.79508e-017 0.94644
    outer loop
      vertex 12.6204 0 3.83368
      vertex 12.6204 1.65 3.83368
      vertex 11.6947 1.65 3.51786
    endloop
  endfacet
  facet normal -0.322881 5.79508e-017 0.94644
    outer loop
      vertex 11.6947 0 3.51786
      vertex 12.6204 0 3.83368
      vertex 11.6947 1.65 3.51786
    endloop
  endfacet
  facet normal -0.457242 5.44547e-017 0.889342
    outer loop
      vertex 13.4903 0 4.28093
      vertex 13.4903 1.65 4.28093
      vertex 12.6204 1.65 3.83368
    endloop
  endfacet
  facet normal -0.457242 5.44547e-017 0.889342
    outer loop
      vertex 12.6204 0 3.83368
      vertex 13.4903 0 4.28093
      vertex 12.6204 1.65 3.83368
    endloop
  endfacet
  facet normal -0.581859 4.9798e-017 0.81329
    outer loop
      vertex 14.2858 0 4.85006
      vertex 14.2858 1.65 4.85006
      vertex 13.4903 1.65 4.28093
    endloop
  endfacet
  facet normal -0.581859 4.9798e-017 0.81329
    outer loop
      vertex 13.4903 0 4.28093
      vertex 14.2858 0 4.85006
      vertex 13.4903 1.65 4.28093
    endloop
  endfacet
  facet normal -0.694074 4.40799e-017 0.719904
    outer loop
      vertex 14.99 0 5.52896
      vertex 14.99 1.65 5.52896
      vertex 14.2858 1.65 4.85006
    endloop
  endfacet
  facet normal -0.694074 4.40799e-017 0.719904
    outer loop
      vertex 14.2858 0 4.85006
      vertex 14.99 0 5.52896
      vertex 14.2858 1.65 4.85006
    endloop
  endfacet
  facet normal -0.791497 3.74223e-017 0.611173
    outer loop
      vertex 15.5878 1.65 6.30316
      vertex 14.99 1.65 5.52896
      vertex 15.5878 0 6.30316
    endloop
  endfacet
  facet normal -0.791497 3.74223e-017 0.611173
    outer loop
      vertex 15.5878 0 6.30316
      vertex 14.99 1.65 5.52896
      vertex 14.99 0 5.52896
    endloop
  endfacet
  facet normal -0.872049 2.99672e-017 0.489418
    outer loop
      vertex 16.0665 1.65 7.15614
      vertex 15.5878 1.65 6.30316
      vertex 16.0665 0 7.15614
    endloop
  endfacet
  facet normal -0.872049 2.99672e-017 0.489418
    outer loop
      vertex 16.0665 0 7.15614
      vertex 15.5878 1.65 6.30316
      vertex 15.5878 0 6.30316
    endloop
  endfacet
  facet normal -0.934016 2.18734e-017 0.357231
    outer loop
      vertex 16.4159 1.65 8.06974
      vertex 16.0665 1.65 7.15614
      vertex 16.4159 0 8.06974
    endloop
  endfacet
  facet normal -0.934016 2.18734e-017 0.357231
    outer loop
      vertex 16.4159 0 8.06974
      vertex 16.0665 1.65 7.15614
      vertex 16.0665 0 7.15614
    endloop
  endfacet
  facet normal -0.976076 1.33133e-017 0.217431
    outer loop
      vertex 16.6286 1.65 9.02447
      vertex 16.4159 1.65 8.06974
      vertex 16.6286 0 9.02447
    endloop
  endfacet
  facet normal -0.976076 1.33133e-017 0.217431
    outer loop
      vertex 16.6286 0 9.02447
      vertex 16.4159 1.65 8.06974
      vertex 16.4159 0 8.06974
    endloop
  endfacet
  facet normal -0.997332 4.4695e-018 0.0729949
    outer loop
      vertex 16.7 1.65 10
      vertex 16.6286 1.65 9.02447
      vertex 16.7 0 10
    endloop
  endfacet
  facet normal -0.997332 4.4695e-018 0.0729949
    outer loop
      vertex 16.7 0 10
      vertex 16.6286 1.65 9.02447
      vertex 16.6286 0 9.02447
    endloop
  endfacet
  facet normal 0 0 1
    outer loop
      vertex 16.7 1.65 10
      vertex 16.7 0 10
      vertex 20 0 10
    endloop
  endfacet
  facet normal 0 0 1
    outer loop
      vertex 18.2 1.65 10
      vertex 16.7 1.65 10
      vertex 20 0 10
    endloop
  endfacet
  facet normal 0 0 1
    outer loop
      vertex 20 8 10
      vertex 19 6 10
      vertex 20 6 10
    endloop
  endfacet
  facet normal 0 0 1
    outer loop
      vertex 23 9 10
      vertex 20 8 10
      vertex 23 8 10
    endloop
  endfacet
  facet normal 0 0 1
    outer loop
      vertex 20 9.32575 10
      vertex 20 8 10
      vertex 23 9 10
    endloop
  endfacet
  facet normal 0 0 1
    outer loop
      vertex 40 9.32575 10
      vertex 23 9 10
      vertex 26 9 10
    endloop
  endfacet
  facet normal 0 0 1
    outer loop
      vertex 33 8 10
      vertex 26 9 10
      vertex 26 8 10
    endloop
  endfacet
  facet normal 0 0 1
    outer loop
      vertex 33 9 10
      vertex 26 9 10
      vertex 33 8 10
    endloop
  endfacet
  facet normal 0 0 1
    outer loop
      vertex 40 9.32575 10
      vertex 26 9 10
      vertex 33 9 10
    endloop
  endfacet
  facet normal 0 0 1
    outer loop
      vertex 40 9.32575 10
      vertex 33 9 10
      vertex 36 9 10
    endloop
  endfacet
  facet normal 0 0 1
    outer loop
      vertex 40 8 10
      vertex 36 9 10
      vertex 36 8 10
    endloop
  endfacet
  facet normal 0 0 1
    outer loop
      vertex 40 9.32575 10
      vertex 36 9 10
      vertex 40 8 10
    endloop
  endfacet
  facet normal 0 0 1
    outer loop
      vertex 20 9.32575 10
      vertex 23 9 10
      vertex 40 9.32575 10
    endloop
  endfacet
  facet normal 0 0 1
    outer loop
      vertex 36 19 10
      vertex 20 18.6743 10
      vertex 40 18.6743 10
    endloop
  endfacet
  facet normal 0 0 1
    outer loop
      vertex 18.2 26.35 10
      vertex 18.2 14 10
      vertex 19 22 10
    endloop
  endfacet
  facet normal 0 0 1
    outer loop
      vertex 26 19 10
      vertex 23 19 10
      vertex 20 18.6743 10
    endloop
  endfacet
  facet normal 0 0 1
    outer loop
      vertex 40 20 10
      vertex 36 19 10
      vertex 40 18.6743 10
    endloop
  endfacet
  facet normal 0 0 1
    outer loop
      vertex 33 19 10
      vertex 20 18.6743 10
      vertex 36 19 10
    endloop
  endfacet
  facet normal 0 0 1
    outer loop
      vertex 26 19 10
      vertex 20 18.6743 10
      vertex 33 19 10
    endloop
  endfacet
  facet normal 0 0 1
    outer loop
      vertex 23 19 10
      vertex 23 20 10
      vertex 20 18.6743 10
    endloop
  endfacet
  facet normal 0 0 1
    outer loop
      vertex 18.2 14 10
      vertex 20 9.32575 10
      vertex 20 18.6743 10
    endloop
  endfacet
  facet normal 0 0 1
    outer loop
      vertex 33 19 10
      vertex 33 20 10
      vertex 26 19 10
    endloop
  endfacet
  facet normal 0 0 1
    outer loop
      vertex 18.2 26.35 10
      vertex 19 22 10
      vertex 19 25 10
    endloop
  endfacet
  facet normal 0 0 1
    outer loop
      vertex 16.7 26.35 10
      vertex 18.2 26.35 10
      vertex 16.7 28 10
    endloop
  endfacet
  facet normal 0 0 1
    outer loop
      vertex 20 20 10
      vertex 20 18.6743 10
      vertex 23 20 10
    endloop
  endfacet
  facet normal 0 0 1
    outer loop
      vertex 18.2 14 10
      vertex 20 20 10
      vertex 20 22 10
    endloop
  endfacet
  facet normal 0 0 1
    outer loop
      vertex 18.2 14 10
      vertex 20 18.6743 10
      vertex 20 20 10
    endloop
  endfacet
  facet normal 0 0 1
    outer loop
      vertex 20 28 10
      vertex 19 25 10
      vertex 20 25 10
    endloop
  endfacet
  facet normal 0 0 1
    outer loop
      vertex 18.2 26.35 10
      vertex 19 25 10
      vertex 20 28 10
    endloop
  endfacet
  facet normal 0 0 1
    outer loop
      vertex 16.7 28 10
      vertex 18.2 26.35 10
      vertex 20 28 10
    endloop
  endfacet
  facet normal 0 0 1
    outer loop
      vertex 19 22 10
      vertex 18.2 14 10
      vertex 20 22 10
    endloop
  endfacet
  facet normal 0 0 1
    outer loop
      vertex 20 3 10
      vertex 18.2 1.65 10
      vertex 20 0 10
    endloop
  endfacet
  facet normal 0 0 1
    outer loop
      vertex 26 20 10
      vertex 26 19 10
      vertex 33 20 10
    endloop
  endfacet
  facet normal 0 0 1
    outer loop
      vertex 36 20 10
      vertex 36 19 10
      vertex 40 20 10
    endloop
  endfacet
  facet normal 0 0 1
    outer loop
      vertex 18.2 14 10
      vertex 20 8 10
      vertex 20 9.32575 10
    endloop
  endfacet
  facet normal 0 0 1
    outer loop
      vertex 18.2 14 10
      vertex 19 6 10
      vertex 20 8 10
    endloop
  endfacet
  facet normal 0 0 1
    outer loop
      vertex 18.2 14 10
      vertex 19 3 10
      vertex 19 6 10
    endloop
  endfacet
  facet normal 0 0 1
    outer loop
      vertex 19 3 10
      vertex 18.2 1.65 10
      vertex 20 3 10
    endloop
  endfacet
  facet normal 0 0 1
    outer loop
      vertex 18.2 14 10
      vertex 18.2 1.65 10
      vertex 19 3 10
    endloop
  endfacet
  facet normal 1 0 0
    outer loop
      vertex 20 0 10
      vertex 20 0 0
      vertex 20 3 0
    endloop
  endfacet
  facet normal 1 0 0
    outer loop
      vertex 20 3 10
      vertex 20 0 10
      vertex 20 3 0
    endloop
  endfacet
  facet normal 0 1 0
    outer loop
      vertex 20 3 10
      vertex 20 3 0
      vertex 19 3 10
    endloop
  endfacet
  facet normal 0 1 0
    outer loop
      vertex 19 3 10
      vertex 20 3 0
      vertex 19 3 0
    endloop
  endfacet
  facet normal 1 0 0
    outer loop
      vertex 19 6 0
      vertex 19 6 10
      vertex 19 3 10
    endloop
  endfacet
  facet normal 1 0 0
    outer loop
      vertex 19 3 0
      vertex 19 6 0
      vertex 19 3 10
    endloop
  endfacet
  facet normal 0 -1 0
    outer loop
      vertex 20 6 0
      vertex 20 6 10
      vertex 19 6 10
    endloop
  endfacet
  facet normal 0 -1 0
    outer loop
      vertex 19 6 0
      vertex 20 6 0
      vertex 19 6 10
    endloop
  endfacet
  facet normal 1 0 0
    outer loop
      vertex 20 6 10
      vertex 20 6 0
      vertex 20 8 0
    endloop
  endfacet
  facet normal 1 0 0
    outer loop
      vertex 20 8 10
      vertex 20 6 10
      vertex 20 8 0
    endloop
  endfacet
  facet normal 0 -1 0
    outer loop
      vertex 20 8 10
      vertex 20 8 0
      vertex 23 8 0
    endloop
  endfacet
  facet normal 0 -1 0
    outer loop
      vertex 23 8 10
      vertex 20 8 10
      vertex 23 8 0
    endloop
  endfacet
  facet normal 1 0 0
    outer loop
      vertex 23 9 0
      vertex 23 9 10
      vertex 23 8 10
    endloop
  endfacet
  facet normal 1 0 0
    outer loop
      vertex 23 8 0
      vertex 23 9 0
      vertex 23 8 10
    endloop
  endfacet
  facet normal 0 -1 0
    outer loop
      vertex 26 9 0
      vertex 26 9 10
      vertex 23 9 10
    endloop
  endfacet
  facet normal 0 -1 0
    outer loop
      vertex 23 9 0
      vertex 26 9 0
      vertex 23 9 10
    endloop
  endfacet
  facet normal -1 0 0
    outer loop
      vertex 26 9 10
      vertex 26 9 0
      vertex 26 8 10
    endloop
  endfacet
  facet normal -1 0 0
    outer loop
      vertex 26 8 10
      vertex 26 9 0
      vertex 26 8 0
    endloop
  endfacet
  facet normal 0 -1 0
    outer loop
      vertex 26 8 10
      vertex 26 8 0
      vertex 33 8 0
    endloop
  endfacet
  facet normal 0 -1 0
    outer loop
      vertex 33 8 10
      vertex 26 8 10
      vertex 33 8 0
    endloop
  endfacet
  facet normal 1 0 0
    outer loop
      vertex 33 9 0
      vertex 33 9 10
      vertex 33 8 10
    endloop
  endfacet
  facet normal 1 0 0
    outer loop
      vertex 33 8 0
      vertex 33 9 0
      vertex 33 8 10
    endloop
  endfacet
  facet normal 0 -1 0
    outer loop
      vertex 36 9 0
      vertex 36 9 10
      vertex 33 9 10
    endloop
  endfacet
  facet normal 0 -1 0
    outer loop
      vertex 33 9 0
      vertex 36 9 0
      vertex 33 9 10
    endloop
  endfacet
  facet normal -1 0 0
    outer loop
      vertex 36 9 10
      vertex 36 9 0
      vertex 36 8 10
    endloop
  endfacet
  facet normal -1 0 0
    outer loop
      vertex 36 8 10
      vertex 36 9 0
      vertex 36 8 0
    endloop
  endfacet
  facet normal 0 -1 0
    outer loop
      vertex 36 8 10
      vertex 36 8 0
      vertex 40 8 0
    endloop
  endfacet
  facet normal 0 -1 0
    outer loop
      vertex 40 8 10
      vertex 36 8 10
      vertex 40 8 0
    endloop
  endfacet
  facet normal 1 0 0
    outer loop
      vertex 40 13.0228 5.40271
      vertex 40 8 0
      vertex 40 20 0
    endloop
  endfacet
  facet normal 1 0 0
    outer loop
      vertex 40 20 10
      vertex 40 18.6743 10
      vertex 40 20 0
    endloop
  endfacet
  facet normal 1 0 0
    outer loop
      vertex 40 18.6743 10
      vertex 40 18.6743 9.50872
      vertex 40 20 0
    endloop
  endfacet
  facet normal 1 0 0
    outer loop
      vertex 40 18.6743 9.50872
      vertex 40 18.47 8.54762
      vertex 40 20 0
    endloop
  endfacet
  facet normal 1 0 0
    outer loop
      vertex 40 18.47 8.54762
      vertex 40 18.0703 7.65
      vertex 40 20 0
    endloop
  endfacet
  facet normal 1 0 0
    outer loop
      vertex 40 18.0703 7.65
      vertex 40 17.4928 6.85509
      vertex 40 20 0
    endloop
  endfacet
  facet normal 1 0 0
    outer loop
      vertex 40 17.4928 6.85509
      vertex 40 16.7626 6.19762
      vertex 40 20 0
    endloop
  endfacet
  facet normal 1 0 0
    outer loop
      vertex 40 16.7626 6.19762
      vertex 40 15.9117 5.70634
      vertex 40 20 0
    endloop
  endfacet
  facet normal 1 0 0
    outer loop
      vertex 40 15.9117 5.70634
      vertex 40 14.9772 5.40271
      vertex 40 20 0
    endloop
  endfacet
  facet normal 1 0 0
    outer loop
      vertex 40 14.9772 5.40271
      vertex 40 14 5.3
      vertex 40 20 0
    endloop
  endfacet
  facet normal 1 0 0
    outer loop
      vertex 40 12.0883 5.70634
      vertex 40 8 0
      vertex 40 13.0228 5.40271
    endloop
  endfacet
  facet normal 1 0 0
    outer loop
      vertex 40 11.2374 6.19762
      vertex 40 8 0
      vertex 40 12.0883 5.70634
    endloop
  endfacet
  facet normal 1 0 0
    outer loop
      vertex 40 10.5072 6.85509
      vertex 40 8 0
      vertex 40 11.2374 6.19762
    endloop
  endfacet
  facet normal 1 0 0
    outer loop
      vertex 40 8 10
      vertex 40 8 0
      vertex 40 10.5072 6.85509
    endloop
  endfacet
  facet normal 1 0 0
    outer loop
      vertex 40 8 10
      vertex 40 10.5072 6.85509
      vertex 40 9.92968 7.65
    endloop
  endfacet
  facet normal 1 0 0
    outer loop
      vertex 40 9.32575 9.50872
      vertex 40 9.32575 10
      vertex 40 8 10
    endloop
  endfacet
  facet normal 1 0 0
    outer loop
      vertex 40 14 5.3
      vertex 40 13.0228 5.40271
      vertex 40 20 0
    endloop
  endfacet
  facet normal 1 0 0
    outer loop
      vertex 40 9.92968 7.65
      vertex 40 9.53003 8.54762
      vertex 40 8 10
    endloop
  endfacet
  facet normal 1 0 0
    outer loop
      vertex 40 9.53003 8.54762
      vertex 40 9.32575 9.50872
      vertex 40 8 10
    endloop
  endfacet
  facet normal 0 1 0
    outer loop
      vertex 36 20 0
      vertex 36 20 10
      vertex 40 20 0
    endloop
  endfacet
  facet normal 0 1 0
    outer loop
      vertex 40 20 0
      vertex 36 20 10
      vertex 40 20 10
    endloop
  endfacet
  facet normal -1 0 0
    outer loop
      vertex 36 20 10
      vertex 36 20 0
      vertex 36 19 10
    endloop
  endfacet
  facet normal -1 0 0
    outer loop
      vertex 36 19 10
      vertex 36 20 0
      vertex 36 19 0
    endloop
  endfacet
  facet normal 0 1 0
    outer loop
      vertex 36 19 10
      vertex 36 19 0
      vertex 33 19 10
    endloop
  endfacet
  facet normal 0 1 0
    outer loop
      vertex 33 19 10
      vertex 36 19 0
      vertex 33 19 0
    endloop
  endfacet
  facet normal 1 0 0
    outer loop
      vertex 33 20 0
      vertex 33 20 10
      vertex 33 19 10
    endloop
  endfacet
  facet normal 1 0 0
    outer loop
      vertex 33 19 0
      vertex 33 20 0
      vertex 33 19 10
    endloop
  endfacet
  facet normal 0 1 0
    outer loop
      vertex 26 20 0
      vertex 26 20 10
      vertex 33 20 0
    endloop
  endfacet
  facet normal 0 1 0
    outer loop
      vertex 33 20 0
      vertex 26 20 10
      vertex 33 20 10
    endloop
  endfacet
  facet normal -1 0 0
    outer loop
      vertex 26 20 10
      vertex 26 20 0
      vertex 26 19 10
    endloop
  endfacet
  facet normal -1 0 0
    outer loop
      vertex 26 19 10
      vertex 26 20 0
      vertex 26 19 0
    endloop
  endfacet
  facet normal 0 1 0
    outer loop
      vertex 26 19 10
      vertex 26 19 0
      vertex 23 19 10
    endloop
  endfacet
  facet normal 0 1 0
    outer loop
      vertex 23 19 10
      vertex 26 19 0
      vertex 23 19 0
    endloop
  endfacet
  facet normal 1 0 0
    outer loop
      vertex 23 20 0
      vertex 23 20 10
      vertex 23 19 10
    endloop
  endfacet
  facet normal 1 0 0
    outer loop
      vertex 23 19 0
      vertex 23 20 0
      vertex 23 19 10
    endloop
  endfacet
  facet normal 0 1 0
    outer loop
      vertex 20 20 0
      vertex 20 20 10
      vertex 23 20 0
    endloop
  endfacet
  facet normal 0 1 0
    outer loop
      vertex 23 20 0
      vertex 20 20 10
      vertex 23 20 10
    endloop
  endfacet
  facet normal 1 0 0
    outer loop
      vertex 20 20 10
      vertex 20 20 0
      vertex 20 22 0
    endloop
  endfacet
  facet normal 1 0 0
    outer loop
      vertex 20 22 10
      vertex 20 20 10
      vertex 20 22 0
    endloop
  endfacet
  facet normal 0 1 0
    outer loop
      vertex 20 22 10
      vertex 20 22 0
      vertex 19 22 10
    endloop
  endfacet
  facet normal 0 1 0
    outer loop
      vertex 19 22 10
      vertex 20 22 0
      vertex 19 22 0
    endloop
  endfacet
  facet normal 1 0 0
    outer loop
      vertex 19 25 0
      vertex 19 25 10
      vertex 19 22 10
    endloop
  endfacet
  facet normal 1 0 0
    outer loop
      vertex 19 22 0
      vertex 19 25 0
      vertex 19 22 10
    endloop
  endfacet
  facet normal 0 -1 0
    outer loop
      vertex 20 25 0
      vertex 20 25 10
      vertex 19 25 10
    endloop
  endfacet
  facet normal 0 -1 0
    outer loop
      vertex 19 25 0
      vertex 20 25 0
      vertex 19 25 10
    endloop
  endfacet
  facet normal 1 0 0
    outer loop
      vertex 20 25 10
      vertex 20 25 0
      vertex 20 28 0
    endloop
  endfacet
  facet normal 1 0 0
    outer loop
      vertex 20 28 10
      vertex 20 25 10
      vertex 20 28 0
    endloop
  endfacet
  facet normal 0 1 0
    outer loop
      vertex 0 28 0
      vertex 0 28 10
      vertex 20 28 0
    endloop
  endfacet
  facet normal 0 1 0
    outer loop
      vertex 20 28 0
      vertex 0 28 10
      vertex 3.31787 28 10
    endloop
  endfacet
  facet normal 0 1 0
    outer loop
      vertex 20 28 0
      vertex 16.7 28 10
      vertex 20 28 10
    endloop
  endfacet
  facet normal 0 1 0
    outer loop
      vertex 16.7 28 10
      vertex 20 28 0
      vertex 3.31787 28 10
    endloop
  endfacet
  facet normal -1 0 0
    outer loop
      vertex 0 25 0
      vertex 0 25 10
      vertex 0 28 0
    endloop
  endfacet
  facet normal -1 0 0
    outer loop
      vertex 0 28 0
      vertex 0 25 10
      vertex 0 28 10
    endloop
  endfacet
  facet normal 0 -1 0
    outer loop
      vertex 1 25 0
      vertex 1 25 10
      vertex 0 25 10
    endloop
  endfacet
  facet normal 0 -1 0
    outer loop
      vertex 0 25 0
      vertex 1 25 0
      vertex 0 25 10
    endloop
  endfacet
  facet normal -1 0 0
    outer loop
      vertex 1 25 10
      vertex 1 25 0
      vertex 1 22 10
    endloop
  endfacet
  facet normal -1 0 0
    outer loop
      vertex 1 22 10
      vertex 1 25 0
      vertex 1 22 0
    endloop
  endfacet
  facet normal 0 1 0
    outer loop
      vertex 1 22 10
      vertex 1 22 0
      vertex 0 22 10
    endloop
  endfacet
  facet normal 0 1 0
    outer loop
      vertex 0 22 10
      vertex 1 22 0
      vertex 0 22 0
    endloop
  endfacet
  facet normal -1 0 0
    outer loop
      vertex 0 6 0
      vertex 0 6 10
      vertex 0 22 0
    endloop
  endfacet
  facet normal -1 0 0
    outer loop
      vertex 0 22 0
      vertex 0 6 10
      vertex 0 22 10
    endloop
  endfacet
  facet normal 0 -1 0
    outer loop
      vertex 1 6 0
      vertex 1 6 10
      vertex 0 6 10
    endloop
  endfacet
  facet normal 0 -1 0
    outer loop
      vertex 0 6 0
      vertex 1 6 0
      vertex 0 6 10
    endloop
  endfacet
  facet normal -1 0 0
    outer loop
      vertex 1 6 10
      vertex 1 6 0
      vertex 1 3 10
    endloop
  endfacet
  facet normal -1 0 0
    outer loop
      vertex 1 3 10
      vertex 1 6 0
      vertex 1 3 0
    endloop
  endfacet
  facet normal 1 0 0
    outer loop
      vertex 3.31787 26.35 9.51093
      vertex 3.31787 28 9.51093
      vertex 3.31787 26.35 10
    endloop
  endfacet
  facet normal 1 0 0
    outer loop
      vertex 3.31787 26.35 10
      vertex 3.31787 28 9.51093
      vertex 3.31787 28 10
    endloop
  endfacet
  facet normal 0 -1 6.12303e-017
    outer loop
      vertex 1.85979 26.35 9.0116
      vertex 2.03828 26.35 8.03761
      vertex 2.33287 26.35 7.09224
    endloop
  endfacet
  facet normal 0 -1 6.12303e-017
    outer loop
      vertex 3.25153 26.35 5.34187
      vertex 1.85979 26.35 9.0116
      vertex 2.73926 26.35 6.18927
    endloop
  endfacet
  facet normal 0 -1 6.12303e-017
    outer loop
      vertex 2.73926 26.35 6.18927
      vertex 1.85979 26.35 9.0116
      vertex 2.33287 26.35 7.09224
    endloop
  endfacet
  facet normal 0 -1 6.12303e-017
    outer loop
      vertex 3.86221 26.35 4.56239
      vertex 1.85979 26.35 9.0116
      vertex 3.25153 26.35 5.34187
    endloop
  endfacet
  facet normal 0 -1 6.12303e-017
    outer loop
      vertex 4.56239 26.35 3.86221
      vertex 1.85979 26.35 9.0116
      vertex 3.86221 26.35 4.56239
    endloop
  endfacet
  facet normal 0 -1 6.12303e-017
    outer loop
      vertex 5.34187 26.35 3.25153
      vertex 1.85979 26.35 9.0116
      vertex 4.56239 26.35 3.86221
    endloop
  endfacet
  facet normal 0 -1 6.12303e-017
    outer loop
      vertex 6.18927 26.35 2.73926
      vertex 1.85979 26.35 9.0116
      vertex 5.34187 26.35 3.25153
    endloop
  endfacet
  facet normal 0 -1 6.12303e-017
    outer loop
      vertex 7.09224 26.35 2.33287
      vertex 1.85979 26.35 9.0116
      vertex 6.18927 26.35 2.73926
    endloop
  endfacet
  facet normal 0 -1 6.12303e-017
    outer loop
      vertex 8.03761 26.35 2.03828
      vertex 1.85979 26.35 9.0116
      vertex 7.09224 26.35 2.33287
    endloop
  endfacet
  facet normal 0 -1 6.12303e-017
    outer loop
      vertex 5.3497 26.35 5.17665
      vertex 1.85979 26.35 9.0116
      vertex 8.03761 26.35 2.03828
    endloop
  endfacet
  facet normal 0 -1 6.12303e-017
    outer loop
      vertex 4.69697 26.35 5.90514
      vertex 4.15727 26.35 6.7209
      vertex 1.85979 26.35 9.0116
    endloop
  endfacet
  facet normal 0 -1 6.12303e-017
    outer loop
      vertex 8.78303 26.35 3.41145
      vertex 7.8367 26.35 3.65885
      vertex 10 26.35 1.8
    endloop
  endfacet
  facet normal 0 -1 6.12303e-017
    outer loop
      vertex 10.7328 26.35 3.34019
      vertex 9.7553 26.35 3.30447
      vertex 11.9624 26.35 2.03828
    endloop
  endfacet
  facet normal 0 -1 6.12303e-017
    outer loop
      vertex 11.6947 26.35 3.51786
      vertex 10.7328 26.35 3.34019
      vertex 12.9078 26.35 2.33287
    endloop
  endfacet
  facet normal 0 -1 6.12303e-017
    outer loop
      vertex 12.6204 26.35 3.83368
      vertex 11.6947 26.35 3.51786
      vertex 13.8107 26.35 2.73926
    endloop
  endfacet
  facet normal 0 -1 6.12303e-017
    outer loop
      vertex 13.4903 26.35 4.28093
      vertex 12.6204 26.35 3.83368
      vertex 14.6581 26.35 3.25153
    endloop
  endfacet
  facet normal 0 -1 6.12303e-017
    outer loop
      vertex 14.2858 26.35 4.85006
      vertex 13.4903 26.35 4.28093
      vertex 15.4376 26.35 3.86221
    endloop
  endfacet
  facet normal 0 -1 6.12303e-017
    outer loop
      vertex 15.5878 26.35 6.30316
      vertex 14.99 26.35 5.52896
      vertex 16.7485 26.35 5.34187
    endloop
  endfacet
  facet normal 0 -1 6.12303e-017
    outer loop
      vertex 16.0665 26.35 7.15614
      vertex 15.5878 26.35 6.30316
      vertex 17.2607 26.35 6.18927
    endloop
  endfacet
  facet normal 0 -1 6.12303e-017
    outer loop
      vertex 16.4159 26.35 8.06974
      vertex 16.0665 26.35 7.15614
      vertex 17.6671 26.35 7.09224
    endloop
  endfacet
  facet normal 0 -1 6.12303e-017
    outer loop
      vertex 14.99 26.35 5.52896
      vertex 14.2858 26.35 4.85006
      vertex 16.1378 26.35 4.56239
    endloop
  endfacet
  facet normal 0 -1 6.12303e-017
    outer loop
      vertex 16.6286 26.35 9.02447
      vertex 17.9617 26.35 8.03761
      vertex 18.1402 26.35 9.0116
    endloop
  endfacet
  facet normal 0 -1 6.12303e-017
    outer loop
      vertex 16.6286 26.35 9.02447
      vertex 16.4159 26.35 8.06974
      vertex 17.9617 26.35 8.03761
    endloop
  endfacet
  facet normal 0 -1 6.12303e-017
    outer loop
      vertex 18.2 26.35 10
      vertex 16.6286 26.35 9.02447
      vertex 18.1402 26.35 9.0116
    endloop
  endfacet
  facet normal 0 -1 6.12303e-017
    outer loop
      vertex 17.9617 26.35 8.03761
      vertex 16.4159 26.35 8.06974
      vertex 17.6671 26.35 7.09224
    endloop
  endfacet
  facet normal 0 -1 6.12303e-017
    outer loop
      vertex 17.6671 26.35 7.09224
      vertex 16.0665 26.35 7.15614
      vertex 17.2607 26.35 6.18927
    endloop
  endfacet
  facet normal 0 -1 6.12303e-017
    outer loop
      vertex 17.2607 26.35 6.18927
      vertex 15.5878 26.35 6.30316
      vertex 16.7485 26.35 5.34187
    endloop
  endfacet
  facet normal 0 -1 6.12303e-017
    outer loop
      vertex 16.7485 26.35 5.34187
      vertex 14.99 26.35 5.52896
      vertex 16.1378 26.35 4.56239
    endloop
  endfacet
  facet normal 0 -1 6.12303e-017
    outer loop
      vertex 16.1378 26.35 4.56239
      vertex 14.2858 26.35 4.85006
      vertex 15.4376 26.35 3.86221
    endloop
  endfacet
  facet normal 0 -1 6.12303e-017
    outer loop
      vertex 15.4376 26.35 3.86221
      vertex 13.4903 26.35 4.28093
      vertex 14.6581 26.35 3.25153
    endloop
  endfacet
  facet normal 0 -1 6.12303e-017
    outer loop
      vertex 14.6581 26.35 3.25153
      vertex 12.6204 26.35 3.83368
      vertex 13.8107 26.35 2.73926
    endloop
  endfacet
  facet normal 0 -1 6.12303e-017
    outer loop
      vertex 13.8107 26.35 2.73926
      vertex 11.6947 26.35 3.51786
      vertex 12.9078 26.35 2.33287
    endloop
  endfacet
  facet normal 0 -1 6.12303e-017
    outer loop
      vertex 12.9078 26.35 2.33287
      vertex 10.7328 26.35 3.34019
      vertex 11.9624 26.35 2.03828
    endloop
  endfacet
  facet normal 0 -1 6.12303e-017
    outer loop
      vertex 11.9624 26.35 2.03828
      vertex 9.7553 26.35 3.30447
      vertex 10.9884 26.35 1.85979
    endloop
  endfacet
  facet normal 0 -1 6.12303e-017
    outer loop
      vertex 10.9884 26.35 1.85979
      vertex 8.78303 26.35 3.41145
      vertex 10 26.35 1.8
    endloop
  endfacet
  facet normal 0 -1 6.12303e-017
    outer loop
      vertex 10 26.35 1.8
      vertex 7.8367 26.35 3.65885
      vertex 9.0116 26.35 1.85979
    endloop
  endfacet
  facet normal 0 -1 6.12303e-017
    outer loop
      vertex 7.8367 26.35 3.65885
      vertex 6.93648 26.35 4.04141
      vertex 9.0116 26.35 1.85979
    endloop
  endfacet
  facet normal 0 -1 6.12303e-017
    outer loop
      vertex 9.0116 26.35 1.85979
      vertex 6.10154 26.35 4.55096
      vertex 8.03761 26.35 2.03828
    endloop
  endfacet
  facet normal 0 -1 6.12303e-017
    outer loop
      vertex 6.10154 26.35 4.55096
      vertex 5.3497 26.35 5.17665
      vertex 8.03761 26.35 2.03828
    endloop
  endfacet
  facet normal 0 -1 6.12303e-017
    outer loop
      vertex 4.69697 26.35 5.90514
      vertex 1.85979 26.35 9.0116
      vertex 5.3497 26.35 5.17665
    endloop
  endfacet
  facet normal 0 -1 6.12303e-017
    outer loop
      vertex 6.93648 26.35 4.04141
      vertex 6.10154 26.35 4.55096
      vertex 9.0116 26.35 1.85979
    endloop
  endfacet
  facet normal 0 -1 6.12303e-017
    outer loop
      vertex 9.7553 26.35 3.30447
      vertex 8.78303 26.35 3.41145
      vertex 10.9884 26.35 1.85979
    endloop
  endfacet
  facet normal 0 -1 6.12303e-017
    outer loop
      vertex 3.31787 26.35 10
      vertex 1.85979 26.35 9.0116
      vertex 3.31787 26.35 9.51093
    endloop
  endfacet
  facet normal 0 -1 6.12303e-017
    outer loop
      vertex 1.8 26.35 10
      vertex 1.85979 26.35 9.0116
      vertex 3.31787 26.35 10
    endloop
  endfacet
  facet normal 0 -1 6.12303e-017
    outer loop
      vertex 16.7 26.35 10
      vertex 16.6286 26.35 9.02447
      vertex 18.2 26.35 10
    endloop
  endfacet
  facet normal 0 -1 6.12303e-017
    outer loop
      vertex 4.15727 26.35 6.7209
      vertex 3.74209 26.35 7.60655
      vertex 1.85979 26.35 9.0116
    endloop
  endfacet
  facet normal 0 -1 6.12303e-017
    outer loop
      vertex 3.74209 26.35 7.60655
      vertex 3.46029 26.35 8.54322
      vertex 1.85979 26.35 9.0116
    endloop
  endfacet
  facet normal 0 -1 6.12303e-017
    outer loop
      vertex 3.46029 26.35 8.54322
      vertex 3.31787 26.35 9.51093
      vertex 1.85979 26.35 9.0116
    endloop
  endfacet
  facet normal 0.998176 3.69698e-018 0.0603783
    outer loop
      vertex 1.8 1.65 10
      vertex 1.85979 1.65 9.0116
      vertex 1.85979 26.35 9.0116
    endloop
  endfacet
  facet normal 0.998176 3.69698e-018 0.0603783
    outer loop
      vertex 1.8 14 10
      vertex 1.8 1.65 10
      vertex 1.8 26.35 10
    endloop
  endfacet
  facet normal 0.998176 3.69698e-018 0.0603783
    outer loop
      vertex 1.8 26.35 10
      vertex 1.8 1.65 10
      vertex 1.85979 26.35 9.0116
    endloop
  endfacet
  facet normal 0 1 -6.12303e-017
    outer loop
      vertex 3.86221 1.65 4.56239
      vertex 3.46029 1.65 8.54322
      vertex 4.56239 1.65 3.86221
    endloop
  endfacet
  facet normal 0 1 -6.12303e-017
    outer loop
      vertex 4.56239 1.65 3.86221
      vertex 3.74209 1.65 7.60655
      vertex 5.34187 1.65 3.25153
    endloop
  endfacet
  facet normal 0 1 -6.12303e-017
    outer loop
      vertex 5.34187 1.65 3.25153
      vertex 4.15727 1.65 6.7209
      vertex 6.18927 1.65 2.73926
    endloop
  endfacet
  facet normal 0 1 -6.12303e-017
    outer loop
      vertex 7.09224 1.65 2.33287
      vertex 4.69697 1.65 5.90514
      vertex 8.03761 1.65 2.03828
    endloop
  endfacet
  facet normal 0 1 -6.12303e-017
    outer loop
      vertex 8.03761 1.65 2.03828
      vertex 5.3497 1.65 5.17665
      vertex 9.0116 1.65 1.85979
    endloop
  endfacet
  facet normal 0 1 -6.12303e-017
    outer loop
      vertex 9.0116 1.65 1.85979
      vertex 6.10154 1.65 4.55096
      vertex 10 1.65 1.8
    endloop
  endfacet
  facet normal 0 1 -6.12303e-017
    outer loop
      vertex 10 1.65 1.8
      vertex 6.93648 1.65 4.04141
      vertex 10.9884 1.65 1.85979
    endloop
  endfacet
  facet normal 0 1 -6.12303e-017
    outer loop
      vertex 11.9624 1.65 2.03828
      vertex 7.8367 1.65 3.65885
      vertex 12.9078 1.65 2.33287
    endloop
  endfacet
  facet normal 0 1 -6.12303e-017
    outer loop
      vertex 12.9078 1.65 2.33287
      vertex 8.78303 1.65 3.41145
      vertex 13.8107 1.65 2.73926
    endloop
  endfacet
  facet normal 0 1 -6.12303e-017
    outer loop
      vertex 13.8107 1.65 2.73926
      vertex 9.7553 1.65 3.30447
      vertex 14.6581 1.65 3.25153
    endloop
  endfacet
  facet normal 0 1 -6.12303e-017
    outer loop
      vertex 14.6581 1.65 3.25153
      vertex 10.7328 1.65 3.34019
      vertex 15.4376 1.65 3.86221
    endloop
  endfacet
  facet normal 0 1 -6.12303e-017
    outer loop
      vertex 15.4376 1.65 3.86221
      vertex 11.6947 1.65 3.51786
      vertex 16.1378 1.65 4.56239
    endloop
  endfacet
  facet normal 0 1 -6.12303e-017
    outer loop
      vertex 16.7485 1.65 5.34187
      vertex 12.6204 1.65 3.83368
      vertex 17.2607 1.65 6.18927
    endloop
  endfacet
  facet normal 0 1 -6.12303e-017
    outer loop
      vertex 17.2607 1.65 6.18927
      vertex 13.4903 1.65 4.28093
      vertex 17.6671 1.65 7.09224
    endloop
  endfacet
  facet normal 0 1 -6.12303e-017
    outer loop
      vertex 17.6671 1.65 7.09224
      vertex 14.2858 1.65 4.85006
      vertex 17.9617 1.65 8.03761
    endloop
  endfacet
  facet normal 0 1 -6.12303e-017
    outer loop
      vertex 17.9617 1.65 8.03761
      vertex 14.99 1.65 5.52896
      vertex 18.1402 1.65 9.0116
    endloop
  endfacet
  facet normal 0 1 -6.12303e-017
    outer loop
      vertex 18.1402 1.65 9.0116
      vertex 15.5878 1.65 6.30316
      vertex 18.2 1.65 10
    endloop
  endfacet
  facet normal 0 1 -6.12303e-017
    outer loop
      vertex 15.5878 1.65 6.30316
      vertex 16.0665 1.65 7.15614
      vertex 18.2 1.65 10
    endloop
  endfacet
  facet normal 0 1 -6.12303e-017
    outer loop
      vertex 16.0665 1.65 7.15614
      vertex 16.4159 1.65 8.06974
      vertex 18.2 1.65 10
    endloop
  endfacet
  facet normal 0 1 -6.12303e-017
    outer loop
      vertex 18.2 1.65 10
      vertex 16.6286 1.65 9.02447
      vertex 16.7 1.65 10
    endloop
  endfacet
  facet normal 0 1 -6.12303e-017
    outer loop
      vertex 16.4159 1.65 8.06974
      vertex 16.6286 1.65 9.02447
      vertex 18.2 1.65 10
    endloop
  endfacet
  facet normal 0 1 -6.12303e-017
    outer loop
      vertex 14.99 1.65 5.52896
      vertex 15.5878 1.65 6.30316
      vertex 18.1402 1.65 9.0116
    endloop
  endfacet
  facet normal 0 1 -6.12303e-017
    outer loop
      vertex 14.2858 1.65 4.85006
      vertex 14.99 1.65 5.52896
      vertex 17.9617 1.65 8.03761
    endloop
  endfacet
  facet normal 0 1 -6.12303e-017
    outer loop
      vertex 13.4903 1.65 4.28093
      vertex 14.2858 1.65 4.85006
      vertex 17.6671 1.65 7.09224
    endloop
  endfacet
  facet normal 0 1 -6.12303e-017
    outer loop
      vertex 12.6204 1.65 3.83368
      vertex 13.4903 1.65 4.28093
      vertex 17.2607 1.65 6.18927
    endloop
  endfacet
  facet normal 0 1 -6.12303e-017
    outer loop
      vertex 16.1378 1.65 4.56239
      vertex 12.6204 1.65 3.83368
      vertex 16.7485 1.65 5.34187
    endloop
  endfacet
  facet normal 0 1 -6.12303e-017
    outer loop
      vertex 11.6947 1.65 3.51786
      vertex 12.6204 1.65 3.83368
      vertex 16.1378 1.65 4.56239
    endloop
  endfacet
  facet normal 0 1 -6.12303e-017
    outer loop
      vertex 10.7328 1.65 3.34019
      vertex 11.6947 1.65 3.51786
      vertex 15.4376 1.65 3.86221
    endloop
  endfacet
  facet normal 0 1 -6.12303e-017
    outer loop
      vertex 9.7553 1.65 3.30447
      vertex 10.7328 1.65 3.34019
      vertex 14.6581 1.65 3.25153
    endloop
  endfacet
  facet normal 0 1 -6.12303e-017
    outer loop
      vertex 8.78303 1.65 3.41145
      vertex 9.7553 1.65 3.30447
      vertex 13.8107 1.65 2.73926
    endloop
  endfacet
  facet normal 0 1 -6.12303e-017
    outer loop
      vertex 7.8367 1.65 3.65885
      vertex 8.78303 1.65 3.41145
      vertex 12.9078 1.65 2.33287
    endloop
  endfacet
  facet normal 0 1 -6.12303e-017
    outer loop
      vertex 10.9884 1.65 1.85979
      vertex 7.8367 1.65 3.65885
      vertex 11.9624 1.65 2.03828
    endloop
  endfacet
  facet normal 0 1 -6.12303e-017
    outer loop
      vertex 6.93648 1.65 4.04141
      vertex 7.8367 1.65 3.65885
      vertex 10.9884 1.65 1.85979
    endloop
  endfacet
  facet normal 0 1 -6.12303e-017
    outer loop
      vertex 6.10154 1.65 4.55096
      vertex 6.93648 1.65 4.04141
      vertex 10 1.65 1.8
    endloop
  endfacet
  facet normal 0 1 -6.12303e-017
    outer loop
      vertex 5.3497 1.65 5.17665
      vertex 6.10154 1.65 4.55096
      vertex 9.0116 1.65 1.85979
    endloop
  endfacet
  facet normal 0 1 -6.12303e-017
    outer loop
      vertex 4.69697 1.65 5.90514
      vertex 5.3497 1.65 5.17665
      vertex 8.03761 1.65 2.03828
    endloop
  endfacet
  facet normal 0 1 -6.12303e-017
    outer loop
      vertex 6.18927 1.65 2.73926
      vertex 4.69697 1.65 5.90514
      vertex 7.09224 1.65 2.33287
    endloop
  endfacet
  facet normal 0 1 -6.12303e-017
    outer loop
      vertex 4.15727 1.65 6.7209
      vertex 4.69697 1.65 5.90514
      vertex 6.18927 1.65 2.73926
    endloop
  endfacet
  facet normal 0 1 -6.12303e-017
    outer loop
      vertex 3.74209 1.65 7.60655
      vertex 4.15727 1.65 6.7209
      vertex 5.34187 1.65 3.25153
    endloop
  endfacet
  facet normal 0 1 -6.12303e-017
    outer loop
      vertex 3.46029 1.65 8.54322
      vertex 3.74209 1.65 7.60655
      vertex 4.56239 1.65 3.86221
    endloop
  endfacet
  facet normal 0 1 -6.12303e-017
    outer loop
      vertex 3.31787 1.65 9.51093
      vertex 3.46029 1.65 8.54322
      vertex 3.86221 1.65 4.56239
    endloop
  endfacet
  facet normal 0 1 -6.12303e-017
    outer loop
      vertex 3.31787 1.65 9.51093
      vertex 3.86221 1.65 4.56239
      vertex 3.25153 1.65 5.34187
    endloop
  endfacet
  facet normal 0 1 -6.12303e-017
    outer loop
      vertex 3.31787 1.65 9.51093
      vertex 3.25153 1.65 5.34187
      vertex 3.31787 1.65 10
    endloop
  endfacet
  facet normal 0 1 -6.12303e-017
    outer loop
      vertex 3.25153 1.65 5.34187
      vertex 2.73926 1.65 6.18927
      vertex 3.31787 1.65 10
    endloop
  endfacet
  facet normal 0 1 -6.12303e-017
    outer loop
      vertex 2.73926 1.65 6.18927
      vertex 2.33287 1.65 7.09224
      vertex 3.31787 1.65 10
    endloop
  endfacet
  facet normal 0 1 -6.12303e-017
    outer loop
      vertex 2.33287 1.65 7.09224
      vertex 2.03828 1.65 8.03761
      vertex 3.31787 1.65 10
    endloop
  endfacet
  facet normal 0 1 -6.12303e-017
    outer loop
      vertex 2.03828 1.65 8.03761
      vertex 1.85979 1.65 9.0116
      vertex 3.31787 1.65 10
    endloop
  endfacet
  facet normal 0 1 -6.12303e-017
    outer loop
      vertex 1.85979 1.65 9.0116
      vertex 1.8 1.65 10
      vertex 3.31787 1.65 10
    endloop
  endfacet
  facet normal -0.998176 3.69698e-018 0.0603783
    outer loop
      vertex 18.2 14 10
      vertex 18.2 26.35 10
      vertex 18.2 1.65 10
    endloop
  endfacet
  facet normal -0.998176 3.69698e-018 0.0603783
    outer loop
      vertex 18.2 1.65 10
      vertex 18.2 26.35 10
      vertex 18.1402 26.35 9.0116
    endloop
  endfacet
  facet normal -0.998176 3.69698e-018 0.0603783
    outer loop
      vertex 18.2 1.65 10
      vertex 18.1402 26.35 9.0116
      vertex 18.1402 1.65 9.0116
    endloop
  endfacet
  facet normal 0 -1 0
    outer loop
      vertex 20 18.6743 9.50872
      vertex 40 18.6743 9.50872
      vertex 40 18.6743 10
    endloop
  endfacet
  facet normal 0 -1 0
    outer loop
      vertex 20 18.6743 10
      vertex 20 18.6743 9.50872
      vertex 40 18.6743 10
    endloop
  endfacet
  facet normal 1 0 6.12303e-017
    outer loop
      vertex 20 9.32575 9.50872
      vertex 20 9.53003 8.54762
      vertex 20 9.92968 7.65
    endloop
  endfacet
  facet normal 1 0 6.12303e-017
    outer loop
      vertex 20 11.2374 6.19762
      vertex 20 9.32575 9.50872
      vertex 20 10.5072 6.85509
    endloop
  endfacet
  facet normal 1 0 6.12303e-017
    outer loop
      vertex 20 10.5072 6.85509
      vertex 20 9.32575 9.50872
      vertex 20 9.92968 7.65
    endloop
  endfacet
  facet normal 1 0 6.12303e-017
    outer loop
      vertex 20 12.0883 5.70634
      vertex 20 9.32575 9.50872
      vertex 20 11.2374 6.19762
    endloop
  endfacet
  facet normal 1 0 6.12303e-017
    outer loop
      vertex 20 13.0228 5.40271
      vertex 20 9.32575 9.50872
      vertex 20 12.0883 5.70634
    endloop
  endfacet
  facet normal 1 0 6.12303e-017
    outer loop
      vertex 20 14 5.3
      vertex 20 9.32575 9.50872
      vertex 20 13.0228 5.40271
    endloop
  endfacet
  facet normal 1 0 6.12303e-017
    outer loop
      vertex 20 14.9772 5.40271
      vertex 20 9.32575 9.50872
      vertex 20 14 5.3
    endloop
  endfacet
  facet normal 1 0 6.12303e-017
    outer loop
      vertex 20 15.9117 5.70634
      vertex 20 9.32575 9.50872
      vertex 20 14.9772 5.40271
    endloop
  endfacet
  facet normal 1 0 6.12303e-017
    outer loop
      vertex 20 16.7626 6.19762
      vertex 20 9.32575 9.50872
      vertex 20 15.9117 5.70634
    endloop
  endfacet
  facet normal 1 0 6.12303e-017
    outer loop
      vertex 20 17.4928 6.85509
      vertex 20 9.32575 9.50872
      vertex 20 16.7626 6.19762
    endloop
  endfacet
  facet normal 1 0 6.12303e-017
    outer loop
      vertex 20 18.0703 7.65
      vertex 20 9.32575 9.50872
      vertex 20 17.4928 6.85509
    endloop
  endfacet
  facet normal 1 0 6.12303e-017
    outer loop
      vertex 20 18.47 8.54762
      vertex 20 9.32575 9.50872
      vertex 20 18.0703 7.65
    endloop
  endfacet
  facet normal 1 0 6.12303e-017
    outer loop
      vertex 20 18.6743 9.50872
      vertex 20 9.32575 9.50872
      vertex 20 18.47 8.54762
    endloop
  endfacet
  facet normal 1 0 6.12303e-017
    outer loop
      vertex 20 18.6743 10
      vertex 20 9.32575 9.50872
      vertex 20 18.6743 9.50872
    endloop
  endfacet
  facet normal 1 0 6.12303e-017
    outer loop
      vertex 20 9.32575 10
      vertex 20 9.32575 9.50872
      vertex 20 18.6743 10
    endloop
  endfacet
  facet normal 0 1 0
    outer loop
      vertex 40 9.32575 9.50872
      vertex 20 9.32575 9.50872
      vertex 40 9.32575 10
    endloop
  endfacet
  facet normal 0 1 0
    outer loop
      vertex 40 9.32575 10
      vertex 20 9.32575 9.50872
      vertex 20 9.32575 10
    endloop
  endfacet
  facet normal -1.27305e-017 0.978148 0.207911
    outer loop
      vertex 40 9.53003 8.54762
      vertex 20 9.53003 8.54762
      vertex 40 9.32575 9.50872
    endloop
  endfacet
  facet normal -1.27305e-017 0.978148 0.207911
    outer loop
      vertex 40 9.32575 9.50872
      vertex 20 9.53003 8.54762
      vertex 20 9.32575 9.50872
    endloop
  endfacet
  facet normal -2.49047e-017 0.913545 0.406737
    outer loop
      vertex 40 9.92968 7.65
      vertex 20 9.92968 7.65
      vertex 40 9.53003 8.54762
    endloop
  endfacet
  facet normal -2.49047e-017 0.913545 0.406737
    outer loop
      vertex 40 9.53003 8.54762
      vertex 20 9.92968 7.65
      vertex 20 9.53003 8.54762
    endloop
  endfacet
  facet normal -3.59902e-017 0.809017 0.587785
    outer loop
      vertex 40 10.5072 6.85509
      vertex 20 10.5072 6.85509
      vertex 40 9.92968 7.65
    endloop
  endfacet
  facet normal -3.59902e-017 0.809017 0.587785
    outer loop
      vertex 40 9.92968 7.65
      vertex 20 10.5072 6.85509
      vertex 20 9.92968 7.65
    endloop
  endfacet
  facet normal -4.5503e-017 0.669131 0.743145
    outer loop
      vertex 40 10.5072 6.85509
      vertex 40 11.2374 6.19762
      vertex 20 11.2374 6.19762
    endloop
  endfacet
  facet normal -4.5503e-017 0.669131 0.743145
    outer loop
      vertex 20 10.5072 6.85509
      vertex 40 10.5072 6.85509
      vertex 20 11.2374 6.19762
    endloop
  endfacet
  facet normal -5.3027e-017 0.5 0.866025
    outer loop
      vertex 40 11.2374 6.19762
      vertex 40 12.0883 5.70634
      vertex 20 12.0883 5.70634
    endloop
  endfacet
  facet normal -5.3027e-017 0.5 0.866025
    outer loop
      vertex 20 11.2374 6.19762
      vertex 40 11.2374 6.19762
      vertex 20 12.0883 5.70634
    endloop
  endfacet
  facet normal -5.82335e-017 0.309017 0.951057
    outer loop
      vertex 40 12.0883 5.70634
      vertex 40 13.0228 5.40271
      vertex 20 13.0228 5.40271
    endloop
  endfacet
  facet normal -5.82335e-017 0.309017 0.951057
    outer loop
      vertex 20 12.0883 5.70634
      vertex 40 12.0883 5.70634
      vertex 20 13.0228 5.40271
    endloop
  endfacet
  facet normal -6.08949e-017 0.104528 0.994522
    outer loop
      vertex 40 13.0228 5.40271
      vertex 40 14 5.3
      vertex 20 14 5.3
    endloop
  endfacet
  facet normal -6.08949e-017 0.104528 0.994522
    outer loop
      vertex 20 13.0228 5.40271
      vertex 40 13.0228 5.40271
      vertex 20 14 5.3
    endloop
  endfacet
  facet normal -6.08949e-017 -0.104528 0.994522
    outer loop
      vertex 20 14 5.3
      vertex 40 14 5.3
      vertex 40 14.9772 5.40271
    endloop
  endfacet
  facet normal -6.08949e-017 -0.104528 0.994522
    outer loop
      vertex 20 14.9772 5.40271
      vertex 20 14 5.3
      vertex 40 14.9772 5.40271
    endloop
  endfacet
  facet normal -5.82335e-017 -0.309017 0.951057
    outer loop
      vertex 20 14.9772 5.40271
      vertex 40 14.9772 5.40271
      vertex 40 15.9117 5.70634
    endloop
  endfacet
  facet normal -5.82335e-017 -0.309017 0.951057
    outer loop
      vertex 20 15.9117 5.70634
      vertex 20 14.9772 5.40271
      vertex 40 15.9117 5.70634
    endloop
  endfacet
  facet normal -5.3027e-017 -0.5 0.866025
    outer loop
      vertex 20 15.9117 5.70634
      vertex 40 15.9117 5.70634
      vertex 40 16.7626 6.19762
    endloop
  endfacet
  facet normal -5.3027e-017 -0.5 0.866025
    outer loop
      vertex 20 16.7626 6.19762
      vertex 20 15.9117 5.70634
      vertex 40 16.7626 6.19762
    endloop
  endfacet
  facet normal -4.5503e-017 -0.669131 0.743145
    outer loop
      vertex 20 16.7626 6.19762
      vertex 40 16.7626 6.19762
      vertex 40 17.4928 6.85509
    endloop
  endfacet
  facet normal -4.5503e-017 -0.669131 0.743145
    outer loop
      vertex 20 17.4928 6.85509
      vertex 20 16.7626 6.19762
      vertex 40 17.4928 6.85509
    endloop
  endfacet
  facet normal -3.59902e-017 -0.809017 0.587785
    outer loop
      vertex 20 17.4928 6.85509
      vertex 40 17.4928 6.85509
      vertex 40 18.0703 7.65
    endloop
  endfacet
  facet normal -3.59902e-017 -0.809017 0.587785
    outer loop
      vertex 20 18.0703 7.65
      vertex 20 17.4928 6.85509
      vertex 40 18.0703 7.65
    endloop
  endfacet
  facet normal -2.49047e-017 -0.913545 0.406737
    outer loop
      vertex 20 18.0703 7.65
      vertex 40 18.0703 7.65
      vertex 40 18.47 8.54762
    endloop
  endfacet
  facet normal -2.49047e-017 -0.913545 0.406737
    outer loop
      vertex 20 18.47 8.54762
      vertex 20 18.0703 7.65
      vertex 40 18.47 8.54762
    endloop
  endfacet
  facet normal -1.27305e-017 -0.978148 0.207911
    outer loop
      vertex 20 18.47 8.54762
      vertex 40 18.47 8.54762
      vertex 40 18.6743 9.50872
    endloop
  endfacet
  facet normal -1.27305e-017 -0.978148 0.207911
    outer loop
      vertex 20 18.6743 9.50872
      vertex 20 18.47 8.54762
      vertex 40 18.6743 9.50872
    endloop
  endfacet
  facet normal -0.997332 4.4695e-018 0.0729949
    outer loop
      vertex 16.7 28 10
      vertex 16.6286 28 9.02447
      vertex 16.7 26.35 10
    endloop
  endfacet
  facet normal -0.997332 4.4695e-018 0.0729949
    outer loop
      vertex 16.7 26.35 10
      vertex 16.6286 28 9.02447
      vertex 16.6286 26.35 9.02447
    endloop
  endfacet
  facet normal 0 -1 6.12303e-017
    outer loop
      vertex 3.46029 28 8.54322
      vertex 3.74209 28 7.60655
      vertex 4.15727 28 6.7209
    endloop
  endfacet
  facet normal 0 -1 6.12303e-017
    outer loop
      vertex 5.3497 28 5.17665
      vertex 3.46029 28 8.54322
      vertex 4.69697 28 5.90514
    endloop
  endfacet
  facet normal 0 -1 6.12303e-017
    outer loop
      vertex 4.69697 28 5.90514
      vertex 3.46029 28 8.54322
      vertex 4.15727 28 6.7209
    endloop
  endfacet
  facet normal 0 -1 6.12303e-017
    outer loop
      vertex 6.10154 28 4.55096
      vertex 3.46029 28 8.54322
      vertex 5.3497 28 5.17665
    endloop
  endfacet
  facet normal 0 -1 6.12303e-017
    outer loop
      vertex 6.93648 28 4.04141
      vertex 3.46029 28 8.54322
      vertex 6.10154 28 4.55096
    endloop
  endfacet
  facet normal 0 -1 6.12303e-017
    outer loop
      vertex 7.8367 28 3.65885
      vertex 3.46029 28 8.54322
      vertex 6.93648 28 4.04141
    endloop
  endfacet
  facet normal 0 -1 6.12303e-017
    outer loop
      vertex 8.78303 28 3.41145
      vertex 3.46029 28 8.54322
      vertex 7.8367 28 3.65885
    endloop
  endfacet
  facet normal 0 -1 6.12303e-017
    outer loop
      vertex 9.7553 28 3.30447
      vertex 3.46029 28 8.54322
      vertex 8.78303 28 3.41145
    endloop
  endfacet
  facet normal 0 -1 6.12303e-017
    outer loop
      vertex 10.7328 28 3.34019
      vertex 3.46029 28 8.54322
      vertex 9.7553 28 3.30447
    endloop
  endfacet
  facet normal 0 -1 6.12303e-017
    outer loop
      vertex 11.6947 28 3.51786
      vertex 3.46029 28 8.54322
      vertex 10.7328 28 3.34019
    endloop
  endfacet
  facet normal 0 -1 6.12303e-017
    outer loop
      vertex 12.6204 28 3.83368
      vertex 3.46029 28 8.54322
      vertex 11.6947 28 3.51786
    endloop
  endfacet
  facet normal 0 -1 6.12303e-017
    outer loop
      vertex 13.4903 28 4.28093
      vertex 3.46029 28 8.54322
      vertex 12.6204 28 3.83368
    endloop
  endfacet
  facet normal 0 -1 6.12303e-017
    outer loop
      vertex 14.2858 28 4.85006
      vertex 3.46029 28 8.54322
      vertex 13.4903 28 4.28093
    endloop
  endfacet
  facet normal 0 -1 6.12303e-017
    outer loop
      vertex 14.99 28 5.52896
      vertex 3.46029 28 8.54322
      vertex 14.2858 28 4.85006
    endloop
  endfacet
  facet normal 0 -1 6.12303e-017
    outer loop
      vertex 15.5878 28 6.30316
      vertex 3.46029 28 8.54322
      vertex 14.99 28 5.52896
    endloop
  endfacet
  facet normal 0 -1 6.12303e-017
    outer loop
      vertex 16.0665 28 7.15614
      vertex 3.46029 28 8.54322
      vertex 15.5878 28 6.30316
    endloop
  endfacet
  facet normal 0 -1 6.12303e-017
    outer loop
      vertex 16.4159 28 8.06974
      vertex 3.46029 28 8.54322
      vertex 16.0665 28 7.15614
    endloop
  endfacet
  facet normal 0 -1 6.12303e-017
    outer loop
      vertex 16.6286 28 9.02447
      vertex 3.46029 28 8.54322
      vertex 16.4159 28 8.06974
    endloop
  endfacet
  facet normal 0 -1 6.12303e-017
    outer loop
      vertex 16.7 28 10
      vertex 3.46029 28 8.54322
      vertex 16.6286 28 9.02447
    endloop
  endfacet
  facet normal 0 -1 6.12303e-017
    outer loop
      vertex 3.31787 28 10
      vertex 3.46029 28 8.54322
      vertex 16.7 28 10
    endloop
  endfacet
  facet normal 0 -1 6.12303e-017
    outer loop
      vertex 3.31787 28 9.51093
      vertex 3.46029 28 8.54322
      vertex 3.31787 28 10
    endloop
  endfacet
  facet normal 0.989343 8.91522e-018 0.145601
    outer loop
      vertex 3.46029 26.35 8.54322
      vertex 3.46029 28 8.54322
      vertex 3.31787 28 9.51093
    endloop
  endfacet
  facet normal 0.989343 8.91522e-018 0.145601
    outer loop
      vertex 3.31787 26.35 9.51093
      vertex 3.46029 26.35 8.54322
      vertex 3.31787 28 9.51093
    endloop
  endfacet
  facet normal 0.98362 1.10371e-017 0.180255
    outer loop
      vertex 2.03828 1.65 8.03761
      vertex 2.03828 26.35 8.03761
      vertex 1.85979 26.35 9.0116
    endloop
  endfacet
  facet normal 0.98362 1.10371e-017 0.180255
    outer loop
      vertex 1.85979 1.65 9.0116
      vertex 2.03828 1.65 8.03761
      vertex 1.85979 26.35 9.0116
    endloop
  endfacet
  facet normal 0.957601 1.76404e-017 0.288099
    outer loop
      vertex 3.74209 26.35 7.60655
      vertex 3.74209 28 7.60655
      vertex 3.46029 28 8.54322
    endloop
  endfacet
  facet normal 0.957601 1.76404e-017 0.288099
    outer loop
      vertex 3.46029 26.35 8.54322
      vertex 3.74209 26.35 7.60655
      vertex 3.46029 28 8.54322
    endloop
  endfacet
  facet normal 0.905448 2.59896e-017 0.424457
    outer loop
      vertex 4.15727 26.35 6.7209
      vertex 4.15727 28 6.7209
      vertex 3.74209 28 7.60655
    endloop
  endfacet
  facet normal 0.905448 2.59896e-017 0.424457
    outer loop
      vertex 3.74209 26.35 7.60655
      vertex 4.15727 26.35 6.7209
      vertex 3.74209 28 7.60655
    endloop
  endfacet
  facet normal 0.833998 3.37849e-017 0.551768
    outer loop
      vertex 4.69697 26.35 5.90514
      vertex 4.69697 28 5.90514
      vertex 4.15727 28 6.7209
    endloop
  endfacet
  facet normal 0.833998 3.37849e-017 0.551768
    outer loop
      vertex 4.15727 26.35 6.7209
      vertex 4.69697 26.35 5.90514
      vertex 4.15727 28 6.7209
    endloop
  endfacet
  facet normal 0.744772 4.08601e-017 0.667319
    outer loop
      vertex 5.3497 26.35 5.17665
      vertex 5.3497 28 5.17665
      vertex 4.69697 28 5.90514
    endloop
  endfacet
  facet normal 0.744772 4.08601e-017 0.667319
    outer loop
      vertex 4.69697 26.35 5.90514
      vertex 5.3497 26.35 5.17665
      vertex 4.69697 28 5.90514
    endloop
  endfacet
  facet normal 0.639673 4.70645e-017 0.768647
    outer loop
      vertex 6.10154 26.35 4.55096
      vertex 6.10154 28 4.55096
      vertex 5.3497 28 5.17665
    endloop
  endfacet
  facet normal 0.639673 4.70645e-017 0.768647
    outer loop
      vertex 5.3497 26.35 5.17665
      vertex 6.10154 26.35 4.55096
      vertex 5.3497 28 5.17665
    endloop
  endfacet
  facet normal 0.52094 5.22658e-017 0.853593
    outer loop
      vertex 6.93648 26.35 4.04141
      vertex 6.93648 28 4.04141
      vertex 6.10154 28 4.55096
    endloop
  endfacet
  facet normal 0.52094 5.22658e-017 0.853593
    outer loop
      vertex 6.10154 26.35 4.55096
      vertex 6.93648 26.35 4.04141
      vertex 6.10154 28 4.55096
    endloop
  endfacet
  facet normal 0.391105 5.63531e-017 0.920346
    outer loop
      vertex 7.8367 26.35 3.65885
      vertex 7.8367 28 3.65885
      vertex 6.93648 28 4.04141
    endloop
  endfacet
  facet normal 0.391105 5.63531e-017 0.920346
    outer loop
      vertex 6.93648 26.35 4.04141
      vertex 7.8367 26.35 3.65885
      vertex 6.93648 28 4.04141
    endloop
  endfacet
  facet normal 0.252934 5.92393e-017 0.967484
    outer loop
      vertex 8.78303 26.35 3.41145
      vertex 8.78303 28 3.41145
      vertex 7.8367 28 3.65885
    endloop
  endfacet
  facet normal 0.252934 5.92393e-017 0.967484
    outer loop
      vertex 7.8367 26.35 3.65885
      vertex 8.78303 26.35 3.41145
      vertex 7.8367 28 3.65885
    endloop
  endfacet
  facet normal 0.109371 6.0863e-017 0.994001
    outer loop
      vertex 9.7553 26.35 3.30447
      vertex 9.7553 28 3.30447
      vertex 8.78303 28 3.41145
    endloop
  endfacet
  facet normal 0.109371 6.0863e-017 0.994001
    outer loop
      vertex 8.78303 26.35 3.41145
      vertex 9.7553 26.35 3.30447
      vertex 8.78303 28 3.41145
    endloop
  endfacet
  facet normal -0.0365214 6.11895e-017 0.999333
    outer loop
      vertex 10.7328 26.35 3.34019
      vertex 10.7328 28 3.34019
      vertex 9.7553 28 3.30447
    endloop
  endfacet
  facet normal -0.0365214 6.11895e-017 0.999333
    outer loop
      vertex 9.7553 26.35 3.30447
      vertex 10.7328 26.35 3.34019
      vertex 9.7553 28 3.30447
    endloop
  endfacet
  facet normal -0.181637 6.02118e-017 0.983366
    outer loop
      vertex 11.6947 26.35 3.51786
      vertex 11.6947 28 3.51786
      vertex 10.7328 28 3.34019
    endloop
  endfacet
  facet normal -0.181637 6.02118e-017 0.983366
    outer loop
      vertex 10.7328 26.35 3.34019
      vertex 11.6947 26.35 3.51786
      vertex 10.7328 28 3.34019
    endloop
  endfacet
  facet normal -0.322881 5.79508e-017 0.94644
    outer loop
      vertex 12.6204 26.35 3.83368
      vertex 12.6204 28 3.83368
      vertex 11.6947 28 3.51786
    endloop
  endfacet
  facet normal -0.322881 5.79508e-017 0.94644
    outer loop
      vertex 11.6947 26.35 3.51786
      vertex 12.6204 26.35 3.83368
      vertex 11.6947 28 3.51786
    endloop
  endfacet
  facet normal -0.457242 5.44547e-017 0.889342
    outer loop
      vertex 13.4903 26.35 4.28093
      vertex 13.4903 28 4.28093
      vertex 12.6204 28 3.83368
    endloop
  endfacet
  facet normal -0.457242 5.44547e-017 0.889342
    outer loop
      vertex 12.6204 26.35 3.83368
      vertex 13.4903 26.35 4.28093
      vertex 12.6204 28 3.83368
    endloop
  endfacet
  facet normal -0.581859 4.9798e-017 0.81329
    outer loop
      vertex 14.2858 26.35 4.85006
      vertex 14.2858 28 4.85006
      vertex 13.4903 28 4.28093
    endloop
  endfacet
  facet normal -0.581859 4.9798e-017 0.81329
    outer loop
      vertex 13.4903 26.35 4.28093
      vertex 14.2858 26.35 4.85006
      vertex 13.4903 28 4.28093
    endloop
  endfacet
  facet normal -0.694074 4.40799e-017 0.719904
    outer loop
      vertex 14.99 26.35 5.52896
      vertex 14.99 28 5.52896
      vertex 14.2858 28 4.85006
    endloop
  endfacet
  facet normal -0.694074 4.40799e-017 0.719904
    outer loop
      vertex 14.2858 26.35 4.85006
      vertex 14.99 26.35 5.52896
      vertex 14.2858 28 4.85006
    endloop
  endfacet
  facet normal -0.791497 3.74223e-017 0.611173
    outer loop
      vertex 15.5878 28 6.30316
      vertex 14.99 28 5.52896
      vertex 15.5878 26.35 6.30316
    endloop
  endfacet
  facet normal -0.791497 3.74223e-017 0.611173
    outer loop
      vertex 15.5878 26.35 6.30316
      vertex 14.99 28 5.52896
      vertex 14.99 26.35 5.52896
    endloop
  endfacet
  facet normal -0.872049 2.99672e-017 0.489418
    outer loop
      vertex 16.0665 28 7.15614
      vertex 15.5878 28 6.30316
      vertex 16.0665 26.35 7.15614
    endloop
  endfacet
  facet normal -0.872049 2.99672e-017 0.489418
    outer loop
      vertex 16.0665 26.35 7.15614
      vertex 15.5878 28 6.30316
      vertex 15.5878 26.35 6.30316
    endloop
  endfacet
  facet normal -0.934016 2.18734e-017 0.357231
    outer loop
      vertex 16.4159 28 8.06974
      vertex 16.0665 28 7.15614
      vertex 16.4159 26.35 8.06974
    endloop
  endfacet
  facet normal -0.934016 2.18734e-017 0.357231
    outer loop
      vertex 16.4159 26.35 8.06974
      vertex 16.0665 28 7.15614
      vertex 16.0665 26.35 7.15614
    endloop
  endfacet
  facet normal -0.976076 1.33133e-017 0.217431
    outer loop
      vertex 16.6286 28 9.02447
      vertex 16.4159 28 8.06974
      vertex 16.6286 26.35 9.02447
    endloop
  endfacet
  facet normal -0.976076 1.33133e-017 0.217431
    outer loop
      vertex 16.6286 26.35 9.02447
      vertex 16.4159 28 8.06974
      vertex 16.4159 26.35 8.06974
    endloop
  endfacet
  facet normal -0.98362 1.10371e-017 0.180255
    outer loop
      vertex 18.1402 26.35 9.0116
      vertex 17.9617 26.35 8.03761
      vertex 18.1402 1.65 9.0116
    endloop
  endfacet
  facet normal -0.98362 1.10371e-017 0.180255
    outer loop
      vertex 18.1402 1.65 9.0116
      vertex 17.9617 26.35 8.03761
      vertex 17.9617 1.65 8.03761
    endloop
  endfacet
  facet normal -0.954721 1.82162e-017 0.297503
    outer loop
      vertex 17.9617 26.35 8.03761
      vertex 17.6671 26.35 7.09224
      vertex 17.9617 1.65 8.03761
    endloop
  endfacet
  facet normal -0.954721 1.82162e-017 0.297503
    outer loop
      vertex 17.9617 1.65 8.03761
      vertex 17.6671 26.35 7.09224
      vertex 17.6671 1.65 7.09224
    endloop
  endfacet
  facet normal -0.9119 2.51297e-017 0.410413
    outer loop
      vertex 17.6671 26.35 7.09224
      vertex 17.2607 26.35 6.18927
      vertex 17.6671 1.65 7.09224
    endloop
  endfacet
  facet normal -0.9119 2.51297e-017 0.410413
    outer loop
      vertex 17.6671 1.65 7.09224
      vertex 17.2607 26.35 6.18927
      vertex 17.2607 1.65 6.18927
    endloop
  endfacet
  facet normal -0.855782 3.16767e-017 0.517337
    outer loop
      vertex 17.2607 26.35 6.18927
      vertex 16.7485 26.35 5.34187
      vertex 17.2607 1.65 6.18927
    endloop
  endfacet
  facet normal -0.855782 3.16767e-017 0.517337
    outer loop
      vertex 17.2607 1.65 6.18927
      vertex 16.7485 26.35 5.34187
      vertex 16.7485 1.65 5.34187
    endloop
  endfacet
  facet normal -0.787183 3.77619e-017 0.616719
    outer loop
      vertex 16.7485 26.35 5.34187
      vertex 16.1378 26.35 4.56239
      vertex 16.7485 1.65 5.34187
    endloop
  endfacet
  facet normal -0.787183 3.77619e-017 0.616719
    outer loop
      vertex 16.7485 1.65 5.34187
      vertex 16.1378 26.35 4.56239
      vertex 16.1378 1.65 4.56239
    endloop
  endfacet
  facet normal -0.707107 4.32964e-017 0.707107
    outer loop
      vertex 16.1378 26.35 4.56239
      vertex 15.4376 26.35 3.86221
      vertex 16.1378 1.65 4.56239
    endloop
  endfacet
  facet normal -0.707107 4.32964e-017 0.707107
    outer loop
      vertex 16.1378 1.65 4.56239
      vertex 15.4376 26.35 3.86221
      vertex 15.4376 1.65 3.86221
    endloop
  endfacet
  facet normal -0.616719 4.81995e-017 0.787183
    outer loop
      vertex 15.4376 1.65 3.86221
      vertex 15.4376 26.35 3.86221
      vertex 14.6581 26.35 3.25153
    endloop
  endfacet
  facet normal -0.616719 4.81995e-017 0.787183
    outer loop
      vertex 14.6581 1.65 3.25153
      vertex 15.4376 1.65 3.86221
      vertex 14.6581 26.35 3.25153
    endloop
  endfacet
  facet normal -0.517337 5.23998e-017 0.855782
    outer loop
      vertex 14.6581 1.65 3.25153
      vertex 14.6581 26.35 3.25153
      vertex 13.8107 26.35 2.73926
    endloop
  endfacet
  facet normal -0.517337 5.23998e-017 0.855782
    outer loop
      vertex 13.8107 1.65 2.73926
      vertex 14.6581 1.65 3.25153
      vertex 13.8107 26.35 2.73926
    endloop
  endfacet
  facet normal -0.410413 5.58359e-017 0.9119
    outer loop
      vertex 13.8107 1.65 2.73926
      vertex 13.8107 26.35 2.73926
      vertex 12.9078 26.35 2.33287
    endloop
  endfacet
  facet normal -0.410413 5.58359e-017 0.9119
    outer loop
      vertex 12.9078 1.65 2.33287
      vertex 13.8107 1.65 2.73926
      vertex 12.9078 26.35 2.33287
    endloop
  endfacet
  facet normal -0.297503 5.84579e-017 0.954721
    outer loop
      vertex 12.9078 1.65 2.33287
      vertex 12.9078 26.35 2.33287
      vertex 11.9624 26.35 2.03828
    endloop
  endfacet
  facet normal -0.297503 5.84579e-017 0.954721
    outer loop
      vertex 11.9624 1.65 2.03828
      vertex 12.9078 1.65 2.33287
      vertex 11.9624 26.35 2.03828
    endloop
  endfacet
  facet normal -0.180255 6.02274e-017 0.98362
    outer loop
      vertex 11.9624 1.65 2.03828
      vertex 11.9624 26.35 2.03828
      vertex 10.9884 26.35 1.85979
    endloop
  endfacet
  facet normal -0.180255 6.02274e-017 0.98362
    outer loop
      vertex 10.9884 1.65 1.85979
      vertex 11.9624 1.65 2.03828
      vertex 10.9884 26.35 1.85979
    endloop
  endfacet
  facet normal -0.0603783 6.11186e-017 0.998176
    outer loop
      vertex 10.9884 1.65 1.85979
      vertex 10.9884 26.35 1.85979
      vertex 10 26.35 1.8
    endloop
  endfacet
  facet normal -0.0603783 6.11186e-017 0.998176
    outer loop
      vertex 10 1.65 1.8
      vertex 10.9884 1.65 1.85979
      vertex 10 26.35 1.8
    endloop
  endfacet
  facet normal 0.0603783 6.11186e-017 0.998176
    outer loop
      vertex 10 1.65 1.8
      vertex 10 26.35 1.8
      vertex 9.0116 26.35 1.85979
    endloop
  endfacet
  facet normal 0.0603783 6.11186e-017 0.998176
    outer loop
      vertex 9.0116 1.65 1.85979
      vertex 10 1.65 1.8
      vertex 9.0116 26.35 1.85979
    endloop
  endfacet
  facet normal 0.180255 6.02274e-017 0.98362
    outer loop
      vertex 9.0116 1.65 1.85979
      vertex 9.0116 26.35 1.85979
      vertex 8.03761 26.35 2.03828
    endloop
  endfacet
  facet normal 0.180255 6.02274e-017 0.98362
    outer loop
      vertex 8.03761 1.65 2.03828
      vertex 9.0116 1.65 1.85979
      vertex 8.03761 26.35 2.03828
    endloop
  endfacet
  facet normal 0.297503 5.84579e-017 0.954721
    outer loop
      vertex 8.03761 1.65 2.03828
      vertex 8.03761 26.35 2.03828
      vertex 7.09224 26.35 2.33287
    endloop
  endfacet
  facet normal 0.297503 5.84579e-017 0.954721
    outer loop
      vertex 7.09224 1.65 2.33287
      vertex 8.03761 1.65 2.03828
      vertex 7.09224 26.35 2.33287
    endloop
  endfacet
  facet normal 0.410413 5.58359e-017 0.9119
    outer loop
      vertex 7.09224 1.65 2.33287
      vertex 7.09224 26.35 2.33287
      vertex 6.18927 26.35 2.73926
    endloop
  endfacet
  facet normal 0.410413 5.58359e-017 0.9119
    outer loop
      vertex 6.18927 1.65 2.73926
      vertex 7.09224 1.65 2.33287
      vertex 6.18927 26.35 2.73926
    endloop
  endfacet
  facet normal 0.517337 5.23998e-017 0.855782
    outer loop
      vertex 6.18927 1.65 2.73926
      vertex 6.18927 26.35 2.73926
      vertex 5.34187 26.35 3.25153
    endloop
  endfacet
  facet normal 0.517337 5.23998e-017 0.855782
    outer loop
      vertex 5.34187 1.65 3.25153
      vertex 6.18927 1.65 2.73926
      vertex 5.34187 26.35 3.25153
    endloop
  endfacet
  facet normal 0.616719 4.81995e-017 0.787183
    outer loop
      vertex 5.34187 1.65 3.25153
      vertex 5.34187 26.35 3.25153
      vertex 4.56239 26.35 3.86221
    endloop
  endfacet
  facet normal 0.616719 4.81995e-017 0.787183
    outer loop
      vertex 4.56239 1.65 3.86221
      vertex 5.34187 1.65 3.25153
      vertex 4.56239 26.35 3.86221
    endloop
  endfacet
  facet normal 0.707107 4.32964e-017 0.707107
    outer loop
      vertex 4.56239 1.65 3.86221
      vertex 4.56239 26.35 3.86221
      vertex 3.86221 26.35 4.56239
    endloop
  endfacet
  facet normal 0.707107 4.32964e-017 0.707107
    outer loop
      vertex 3.86221 1.65 4.56239
      vertex 4.56239 1.65 3.86221
      vertex 3.86221 26.35 4.56239
    endloop
  endfacet
  facet normal 0.787183 3.77619e-017 0.616719
    outer loop
      vertex 3.86221 1.65 4.56239
      vertex 3.86221 26.35 4.56239
      vertex 3.25153 26.35 5.34187
    endloop
  endfacet
  facet normal 0.787183 3.77619e-017 0.616719
    outer loop
      vertex 3.25153 1.65 5.34187
      vertex 3.86221 1.65 4.56239
      vertex 3.25153 26.35 5.34187
    endloop
  endfacet
  facet normal 0.855782 3.16767e-017 0.517337
    outer loop
      vertex 3.25153 1.65 5.34187
      vertex 3.25153 26.35 5.34187
      vertex 2.73926 26.35 6.18927
    endloop
  endfacet
  facet normal 0.855782 3.16767e-017 0.517337
    outer loop
      vertex 2.73926 1.65 6.18927
      vertex 3.25153 1.65 5.34187
      vertex 2.73926 26.35 6.18927
    endloop
  endfacet
  facet normal 0.9119 2.51297e-017 0.410413
    outer loop
      vertex 2.73926 1.65 6.18927
      vertex 2.73926 26.35 6.18927
      vertex 2.33287 26.35 7.09224
    endloop
  endfacet
  facet normal 0.9119 2.51297e-017 0.410413
    outer loop
      vertex 2.33287 1.65 7.09224
      vertex 2.73926 1.65 6.18927
      vertex 2.33287 26.35 7.09224
    endloop
  endfacet
  facet normal 0.954721 1.82162e-017 0.297503
    outer loop
      vertex 2.33287 1.65 7.09224
      vertex 2.33287 26.35 7.09224
      vertex 2.03828 26.35 8.03761
    endloop
  endfacet
  facet normal 0.954721 1.82162e-017 0.297503
    outer loop
      vertex 2.03828 1.65 8.03761
      vertex 2.33287 1.65 7.09224
      vertex 2.03828 26.35 8.03761
    endloop
  endfacet
endsolid OpenSCAD_Model
